<svg width="190" height="188" viewBox="0 0 190 188" fill="none" xmlns="http://www.w3.org/2000/svg">
<g style="mix-blend-mode:overlay">
<path fill-rule="evenodd" clip-rule="evenodd" d="M40.4501 106.666L3.82097 115.176C3.1818 115.323 2.54264 114.931 2.39514 114.296C1.01846 107.987 0.231788 101.531 0.182613 95.0751C0.182612 94.3904 0.723445 93.8524 1.36261 93.8524L38.9751 93.9014C39.6143 93.9014 40.1551 94.4393 40.1551 95.0751C40.2043 98.4986 40.5976 101.873 41.3351 105.248C41.4826 105.884 41.0893 106.519 40.4501 106.666ZM15.3751 45.0926L47.3334 64.851C47.9234 65.1934 48.6117 64.9978 48.9559 64.5087C50.8242 61.6232 52.9876 58.9333 55.3476 56.488C55.7901 56.0478 55.7901 55.2653 55.3476 54.8251L28.7975 28.3175C28.3059 27.8285 27.5192 27.8285 27.0767 28.3175C22.5534 32.9148 18.4725 38.0011 14.9817 43.4298C14.6376 44.0167 14.8342 44.7503 15.3751 45.0926ZM74.6699 41.5234L68.1799 24.5038C67.934 23.917 67.2457 23.5746 66.6065 23.8681C64.1482 24.8462 61.7882 25.9221 59.4282 27.1448C58.8382 27.4383 58.1007 27.2426 57.8057 26.6557L50.0865 12.4727C49.7915 11.8859 49.054 11.6413 48.464 11.9837C42.8099 15.1626 37.4999 18.8795 32.5832 23.1344C32.0915 23.5746 32.0424 24.3571 32.4849 24.8462L44.039 37.7576C44.4815 38.2467 45.219 38.2956 45.7107 37.8554C47.6774 36.1926 49.7424 34.5787 51.8565 33.1114C52.3974 32.7202 53.1349 32.8669 53.5282 33.4049L63.0666 47.4901C63.4107 48.0281 64.1482 48.1748 64.6891 47.8324C67.6391 45.9251 70.7366 44.36 73.9816 43.0396C74.5716 42.795 74.9157 42.1103 74.6699 41.5234ZM43.2035 71.0129L26.536 63.5302C25.946 63.2367 25.2085 63.4813 24.9135 64.1171C23.881 66.5135 22.9468 69.0078 22.1601 71.502C21.9635 72.1378 21.3243 72.4801 20.6851 72.2845L5.14847 67.7362C4.5093 67.5895 3.87014 67.9318 3.67347 68.5676C1.90348 74.8277 0.772652 81.1856 0.33016 87.6413C0.280994 88.326 0.821828 88.8639 1.46099 88.9129L18.8168 89.891C19.5052 89.891 20.046 89.4019 20.0952 88.7661C20.2918 86.1741 20.636 83.6309 21.0785 81.0878C21.226 80.452 21.8652 80.0118 22.5043 80.1585L39.2702 83.3864C39.9093 83.4842 40.4993 83.0929 40.6468 82.4572C41.3843 79.0826 42.4168 75.7569 43.7935 72.578C44.0393 71.9911 43.7935 71.2575 43.2035 71.0129ZM65.378 141.097L45.5147 172.886C45.1705 173.424 44.433 173.62 43.843 173.277C38.3855 169.805 33.2722 165.746 28.6505 161.246C28.1589 160.806 28.1588 160.024 28.6505 159.535L55.2988 133.125C55.7413 132.685 56.528 132.685 56.9705 133.125C59.4288 135.472 62.133 137.624 65.0338 139.483C65.5255 139.825 65.7222 140.559 65.378 141.097ZM41.9253 113.904L24.8153 120.36C24.2253 120.605 23.8812 121.289 24.1762 121.974C25.1595 124.419 26.2412 126.767 27.4703 129.114C27.7653 129.701 27.5687 130.435 26.9787 130.728L12.7203 138.407C12.1303 138.7 11.8845 139.434 12.2287 140.021C15.4245 145.645 19.1612 150.927 23.4387 155.818C23.8812 156.307 24.6679 156.355 25.1595 155.915L38.1395 144.373C38.6312 143.933 38.6803 143.2 38.2378 142.71C36.5662 140.754 34.9437 138.7 33.4687 136.597C33.0753 136.059 33.2228 135.326 33.7637 134.934L47.9237 125.446C48.4645 125.104 48.612 124.37 48.2678 123.832C46.3503 120.898 44.777 117.817 43.4495 114.589C43.2036 114.002 42.5153 113.66 41.9253 113.904ZM141.979 123.149L173.938 142.907C174.478 143.249 174.675 143.983 174.331 144.57C170.84 149.999 166.759 155.085 162.236 159.682C161.794 160.171 161.007 160.171 160.515 159.682L133.965 133.175C133.522 132.734 133.522 131.952 133.965 131.512C136.325 129.066 138.488 126.377 140.357 123.491C140.701 123.002 141.389 122.806 141.979 123.149ZM114.643 146.428L121.133 163.448C121.379 164.084 122.067 164.426 122.706 164.084C125.164 163.106 127.524 162.03 129.884 160.807C130.474 160.513 131.212 160.709 131.507 161.296L139.226 175.479C139.521 176.066 140.259 176.31 140.849 175.968C146.503 172.789 151.813 169.072 156.729 164.817C157.221 164.377 157.27 163.595 156.828 163.106L145.273 150.194C144.831 149.705 144.093 149.656 143.602 150.096C141.635 151.759 139.57 153.373 137.456 154.84C136.915 155.232 136.178 155.085 135.784 154.547L126.246 140.462C125.902 139.924 125.164 139.777 124.623 140.119C121.673 142.027 118.576 143.592 115.331 144.912C114.741 145.157 114.397 145.841 114.643 146.428ZM148.863 81.3337L185.492 72.8239C186.131 72.6772 186.77 73.0684 186.917 73.7042C188.294 80.0132 189.032 86.4689 189.13 92.8757C189.13 93.5604 188.589 94.0984 187.95 94.0984L150.338 94.0495C149.699 94.0495 149.158 93.5115 149.158 92.8757C149.108 89.4522 148.715 86.0777 147.978 82.7031C147.83 82.0673 148.223 81.4804 148.863 81.3337ZM146.109 116.986L162.777 124.469C163.367 124.763 164.104 124.469 164.399 123.882C165.432 121.486 166.366 118.992 167.153 116.497C167.349 115.861 167.989 115.519 168.628 115.715L184.164 120.263C184.804 120.41 185.443 120.067 185.639 119.432C187.409 113.172 188.54 106.814 188.982 100.358C189.032 99.6733 188.491 99.1353 187.852 99.0864L170.496 98.1083C169.807 98.1083 169.267 98.5974 169.217 99.2332C169.021 101.825 168.677 104.368 168.234 106.912C168.087 107.547 167.448 107.987 166.808 107.841L150.043 104.613C149.403 104.515 148.813 104.906 148.666 105.542C147.928 108.917 146.896 112.242 145.519 115.421C145.274 116.008 145.519 116.742 146.109 116.986ZM123.935 46.9031L143.798 15.1136C144.142 14.5756 144.88 14.38 145.47 14.7224C150.928 18.1948 156.041 22.254 160.663 26.7535C161.154 27.1936 161.154 27.9761 160.663 28.4652L134.015 54.8749C133.572 55.3151 132.786 55.3151 132.343 54.8749C129.885 52.5274 127.18 50.3755 124.28 48.5171C123.788 48.1747 123.591 47.4411 123.935 46.9031ZM147.388 74.095L164.498 67.6393C165.088 67.3947 165.432 66.71 165.137 66.0253C164.154 63.58 163.072 61.2324 161.843 58.8849C161.548 58.298 161.744 57.5644 162.334 57.271L176.593 49.5926C177.183 49.2992 177.428 48.5656 177.084 47.9787C173.888 42.3544 170.152 37.0724 165.874 32.1817C165.431 31.6927 164.645 31.6438 164.153 32.0839L151.173 43.5771C150.682 44.0172 150.632 44.7508 151.075 45.2399C152.747 47.1962 154.369 49.2503 155.844 51.3532C156.238 51.8912 156.09 52.6248 155.549 53.0161L141.389 62.5529C140.849 62.8953 140.701 63.6289 141.045 64.1669C142.963 67.1013 144.536 70.1824 145.864 73.4103C146.109 73.9971 146.798 74.3395 147.388 74.095ZM81.9964 40.0552L73.4409 3.61955C73.2933 2.98376 73.6867 2.34797 74.3258 2.20126C80.6683 0.83186 87.1583 0.0982628 93.5991 0.000438422C94.2874 0.000438391 94.8283 0.538417 94.8283 1.17421L94.7796 38.588C94.7797 39.2238 94.2388 39.7617 93.5997 39.7617C90.158 39.8106 86.7655 40.2019 83.373 40.9355C82.783 41.0822 82.1439 40.691 81.9964 40.0552ZM117.839 42.7942L125.361 26.2148C125.656 25.6279 125.361 24.8943 124.771 24.6008C122.362 23.5738 119.855 22.6446 117.347 21.8621C116.708 21.6664 116.364 21.0306 116.56 20.3948L121.133 4.94029C121.28 4.3045 120.936 3.66871 120.297 3.47308C114.004 1.71243 107.612 0.587565 101.122 0.147395C100.434 0.0984911 99.8927 0.636486 99.8435 1.27227L98.8604 18.5364C98.8604 19.2211 99.3521 19.7591 99.9913 19.808C102.597 20.0036 105.154 20.3459 107.71 20.7861C108.35 20.9328 108.792 21.5686 108.645 22.2044L105.4 38.8817C105.302 39.5175 105.695 40.1043 106.334 40.251C109.727 40.9846 113.07 42.0117 116.266 43.3811C116.856 43.6256 117.593 43.3811 117.839 42.7942ZM107.317 147.944L115.872 184.38C116.02 185.015 115.626 185.651 114.987 185.798C108.645 187.167 102.155 187.901 95.7137 187.999C95.0254 187.999 94.4845 187.461 94.4845 186.825L94.5337 149.411C94.5337 148.775 95.0745 148.237 95.7137 148.237C99.1553 148.188 102.548 147.797 105.94 147.064C106.53 146.917 107.17 147.308 107.317 147.944ZM71.4743 145.206L63.9519 161.785C63.6569 162.372 63.9519 163.105 64.5419 163.399C66.951 164.426 69.4585 165.355 71.966 166.138C72.6052 166.333 72.9494 166.969 72.7527 167.605L68.1802 183.059C68.0327 183.695 68.3769 184.331 69.0161 184.527C75.3094 186.287 81.7011 187.412 88.1911 187.852C88.8794 187.901 89.4202 187.363 89.4694 186.728L90.4527 169.463C90.4527 168.779 89.9611 168.241 89.3219 168.192C86.7161 167.996 84.1594 167.654 81.6027 167.214C80.9636 167.067 80.521 166.431 80.6685 165.795L83.9135 149.118C84.0119 148.482 83.6185 147.895 82.9794 147.749C79.5869 147.015 76.2435 145.988 73.0477 144.619C72.4577 144.374 71.7202 144.619 71.4743 145.206Z" fill="#00D35C"/>
</g>
</svg>
