<svg width="20" height="20" viewBox="0 0 20 20" fill="none" xmlns="http://www.w3.org/2000/svg">
<path d="M12.3574 10.5916L8.8241 14.125C8.66763 14.2827 8.45463 14.3715 8.23243 14.3715C8.01023 14.3715 7.79724 14.2827 7.64076 14.125C7.31766 13.7999 7.31766 13.275 7.64076 12.95L10.5908 9.99996L7.64076 7.04996C7.31766 6.72493 7.31766 6.19999 7.64076 5.87496C7.79803 5.71897 8.01093 5.63201 8.23243 5.63329C8.45393 5.63201 8.66683 5.71897 8.8241 5.87496L12.3574 9.40829C12.5152 9.56477 12.6039 9.77776 12.6039 9.99996C12.6039 10.2222 12.5152 10.4352 12.3574 10.5916Z" fill="#0043C9"/>
</svg>
