<svg width="25" height="25" viewBox="0 0 25 25" fill="none" xmlns="http://www.w3.org/2000/svg">
<path d="M11.7908 12.0564L15.3308 15.5964C15.7185 15.9865 15.7185 16.6164 15.3308 17.0064C15.143 17.1958 14.8874 17.3022 14.6208 17.3022C14.3542 17.3022 14.0986 17.1958 13.9108 17.0064L9.6708 12.7664C9.48149 12.5787 9.375 12.3231 9.375 12.0564C9.375 11.7898 9.48149 11.5342 9.6708 11.3464L13.9108 7.05645C14.0995 6.86926 14.355 6.76491 14.6208 6.76645C14.8866 6.76491 15.1421 6.86926 15.3308 7.05645C15.7185 7.44649 15.7185 8.07641 15.3308 8.46645L11.7908 12.0564Z" fill="#8B99A7"/>
</svg>
