<svg width="16" height="16" viewBox="0 0 16 16" fill="none" xmlns="http://www.w3.org/2000/svg">
<path d="M9.88663 7.52655L7.05996 4.69988C6.93478 4.57368 6.76439 4.50269 6.58663 4.50269C6.40887 4.50269 6.23847 4.57368 6.1133 4.69988C5.85481 4.95991 5.85481 5.37986 6.1133 5.63988L8.4733 7.99988L6.1133 10.3599C5.85481 10.6199 5.85481 11.0399 6.1133 11.2999C6.23911 11.4247 6.40943 11.4942 6.58663 11.4932C6.76383 11.4942 6.93415 11.4247 7.05996 11.2999L9.88663 8.47322C10.0128 8.34804 10.0838 8.17764 10.0838 7.99988C10.0838 7.82213 10.0128 7.65173 9.88663 7.52655Z" fill="#0043C9"/>
</svg>
