<svg width="16" height="17" viewBox="0 0 16 17" fill="none" xmlns="http://www.w3.org/2000/svg">
<path d="M11.3332 6.6133C11.0732 6.35481 10.6532 6.35481 10.3932 6.6133L7.99988 8.9733L5.63988 6.6133C5.37986 6.35481 4.95991 6.35481 4.69988 6.6133C4.57368 6.73847 4.50269 6.90887 4.50269 7.08663C4.50269 7.26439 4.57368 7.43478 4.69988 7.55996L7.52655 10.3866C7.65173 10.5128 7.82213 10.5838 7.99988 10.5838C8.17764 10.5838 8.34804 10.5128 8.47322 10.3866L11.3332 7.55996C11.4594 7.43478 11.5304 7.26439 11.5304 7.08663C11.5304 6.90887 11.4594 6.73847 11.3332 6.6133Z" fill="#333333"/>
</svg>
