<svg width="52" height="52" viewBox="0 0 52 52" fill="none" xmlns="http://www.w3.org/2000/svg">
<path d="M24.4608 25.9998L32.1308 33.6698C32.9709 34.5149 32.9709 35.8797 32.1308 36.7248C31.724 37.135 31.1702 37.3657 30.5925 37.3657C30.0147 37.3657 29.461 37.135 29.0541 36.7248L19.8675 27.5382C19.4573 27.1313 19.2266 26.5775 19.2266 25.9998C19.2266 25.4221 19.4573 24.8683 19.8675 24.4615L29.0541 15.1665C29.463 14.7609 30.0166 14.5348 30.5925 14.5382C31.1684 14.5348 31.7219 14.7609 32.1308 15.1665C32.9709 16.0116 32.9709 17.3764 32.1308 18.2215L24.4608 25.9998Z" fill="#121A21"/>
</svg>
