<svg width="20" height="20" viewBox="0 0 20 20" fill="none" xmlns="http://www.w3.org/2000/svg"><path d="M9.40867 10.0001L12.3587 12.9501C12.6818 13.2751 12.6818 13.8001 12.3587 14.1251C12.2022 14.2828 11.9892 14.3716 11.767 14.3716C11.5448 14.3716 11.3318 14.2828 11.1753 14.1251L7.64201 10.5918C7.48425 10.4353 7.39551 10.2223 7.39551 10.0001C7.39551 9.77789 7.48425 9.56489 7.64201 9.40842L11.1753 5.83342C11.3326 5.67743 11.5455 5.59047 11.767 5.59175C11.9885 5.59047 12.2014 5.67743 12.3587 5.83342C12.6818 6.15845 12.6818 6.68339 12.3587 7.00842L9.40867 10.0001Z" fill="white"/></svg>