<svg width="18" height="19" viewBox="0 0 18 19" fill="none" xmlns="http://www.w3.org/2000/svg">
<rect y="0.484375" width="18" height="18" rx="4" fill="#005EB8"/>
<path d="M13.4749 6.29095C13.3498 6.16474 13.1794 6.09375 13.0016 6.09375C12.8239 6.09375 12.6535 6.16474 12.5283 6.29095L7.56161 11.2643L5.47494 9.17095C5.29988 9.00184 5.0479 8.93898 4.81392 9.00603C4.57994 9.07308 4.39951 9.25987 4.34059 9.49603C4.28167 9.73219 4.35322 9.98184 4.52828 10.1509L7.08828 12.7109C7.21345 12.8372 7.38385 12.9081 7.56161 12.9081C7.73937 12.9081 7.90977 12.8372 8.03494 12.7109L13.4749 7.27095C13.6118 7.14474 13.6896 6.96708 13.6896 6.78095C13.6896 6.59482 13.6118 6.41716 13.4749 6.29095Z" fill="white"/>
</svg>
