<svg width="24" height="24" viewBox="0 0 24 24" fill="none" xmlns="http://www.w3.org/2000/svg">
<path d="M13.4099 11.9997L17.7099 7.7097C18.1021 7.31757 18.1021 6.68182 17.7099 6.2897C17.3178 5.89757 16.6821 5.89757 16.2899 6.2897L11.9999 10.5897L7.70994 6.2897C7.31782 5.89757 6.68206 5.89757 6.28994 6.2897C5.89782 6.68182 5.89782 7.31757 6.28994 7.7097L10.5899 11.9997L6.28994 16.2897C6.10063 16.4775 5.99414 16.7331 5.99414 16.9997C5.99414 17.2663 6.10063 17.5219 6.28994 17.7097C6.47771 17.899 6.7333 18.0055 6.99994 18.0055C7.26658 18.0055 7.52217 17.899 7.70994 17.7097L11.9999 13.4097L16.2899 17.7097C16.4777 17.899 16.7333 18.0055 16.9999 18.0055C17.2666 18.0055 17.5222 17.899 17.7099 17.7097C17.8993 17.5219 18.0057 17.2663 18.0057 16.9997C18.0057 16.7331 17.8993 16.4775 17.7099 16.2897L13.4099 11.9997Z" fill="#333333"/>
</svg>
