<svg width="24" height="24" viewBox="0 0 24 24" fill="none" xmlns="http://www.w3.org/2000/svg">
<path d="M14.846 21.0956C14.9277 21.1507 14.9923 21.2284 15.0311 21.319C15.07 21.4096 15.0823 21.5093 15.0659 21.6065C15.0496 21.7038 15.0056 21.794 14.9393 21.8669C14.8729 21.9398 14.7867 21.9926 14.6915 22.018C14.5963 22.0434 14.4958 22.0405 14.4019 22.0103C14.3081 21.9801 14.2251 21.9236 14.1625 21.8474C14.1 21.7712 14.0612 21.6787 14.0498 21.5808C14.0384 21.4829 14.0551 21.3839 14.0985 21.2954C14.2135 21.0609 14.2394 20.793 14.1723 20.5407L14.015 19.9545C13.9675 19.7773 13.8716 19.6171 13.7366 19.493C13.6196 19.3855 13.4878 19.2952 13.3454 19.2249C13.182 19.2552 13.0177 19.2803 12.8526 19.2994C12.6923 19.4493 12.5516 19.6184 12.4336 19.8034C12.2805 20.0455 12.1993 20.3266 12.1998 20.6131V21.5606C12.1997 21.9685 12.3468 22.3626 12.6146 22.6703C12.7156 22.7865 12.7804 22.9294 12.8025 23.0817C12.8246 23.2341 12.8023 23.39 12.7385 23.5301C12.6746 23.6702 12.5728 23.7886 12.4434 23.8719C12.3139 23.9552 12.163 24 12.009 24C11.8551 24 11.7042 23.9552 11.5747 23.8719C11.4453 23.7886 11.3421 23.6702 11.2782 23.5301C11.2144 23.39 11.1921 23.2341 11.2142 23.0817C11.2363 22.9294 11.3025 22.7865 11.4035 22.6703C11.6713 22.3626 11.8184 21.9685 11.8183 21.5606V20.6131C11.8179 20.3263 11.7358 20.0452 11.5817 19.8034C11.4643 19.6185 11.3237 19.4494 11.1641 19.2994C10.4473 19.2167 9.74653 19.0287 9.08439 18.7418C8.87075 18.7917 8.665 18.8679 8.47051 18.9694C8.21709 19.1023 8.00642 19.3048 7.86358 19.5528L7.3889 20.3736C7.1844 20.7267 7.11357 21.1419 7.19123 21.5425C7.22077 21.6937 7.20645 21.8505 7.14947 21.9936C7.09249 22.1368 6.99503 22.2606 6.86967 22.3501C6.74431 22.4396 6.59617 22.4909 6.44232 22.4983C6.28847 22.5057 6.13581 22.4689 6.00244 22.3918C5.86906 22.3148 5.76107 22.2009 5.69062 22.0639C5.62017 21.9269 5.59081 21.7724 5.60571 21.6191C5.6206 21.4657 5.67864 21.3202 5.77414 21.1993C5.86964 21.0784 5.99871 20.9875 6.14442 20.9375C6.52998 20.8049 6.85379 20.5375 7.0576 20.1843L7.53228 19.3628C7.67512 19.1144 7.74523 18.831 7.73273 18.5448C7.72385 18.3257 7.68721 18.1087 7.62415 17.8987C7.49029 17.7995 7.35981 17.6956 7.23299 17.5875C7.07438 17.5773 6.91479 17.5896 6.7597 17.6244C6.5806 17.6642 6.41621 17.7544 6.28641 17.8841L5.85767 18.3129C5.67333 18.4976 5.56235 18.7425 5.54446 19.0028C5.53767 19.1011 5.5031 19.196 5.44423 19.275C5.38536 19.3541 5.30401 19.4138 5.21176 19.4484C5.11952 19.483 5.01991 19.4908 4.92361 19.47C4.82732 19.4492 4.73861 19.401 4.66887 19.3314C4.59914 19.2618 4.55067 19.1736 4.52967 19.0773C4.50866 18.9811 4.51615 18.8808 4.55055 18.7884C4.58495 18.6961 4.64568 18.6156 4.72455 18.5566C4.80342 18.4975 4.89773 18.4626 4.996 18.4556C5.25655 18.4377 5.50177 18.3257 5.68645 18.141L6.11519 17.7121C6.24475 17.5825 6.33562 17.4184 6.3755 17.2394C6.41021 17.0845 6.42182 16.9252 6.41169 16.7667C6.30352 16.64 6.20058 16.51 6.10127 16.3762C5.89105 16.313 5.67329 16.2764 5.45398 16.2676C5.16783 16.2551 4.88372 16.3245 4.63546 16.4674L3.81556 16.9415C3.46195 17.1452 3.19387 17.4703 3.06108 17.8562C3.01103 18.0019 2.92029 18.1298 2.79937 18.2252C2.67846 18.3206 2.53228 18.3796 2.37898 18.3944C2.22568 18.4092 2.07183 18.3793 1.93492 18.3088C1.79801 18.2382 1.68336 18.1296 1.6064 17.9962C1.52945 17.8627 1.49312 17.7101 1.50061 17.5562C1.5081 17.4023 1.56001 17.2541 1.64956 17.1287C1.73911 17.0034 1.8628 16.9065 2.00592 16.8496C2.14903 16.7927 2.30579 16.7775 2.45693 16.8071C2.85736 16.8858 3.27263 16.8173 3.62624 16.6136L4.44615 16.1395C4.69422 15.9961 4.89688 15.7851 5.02941 15.531C5.13086 15.3367 5.20632 15.1304 5.25631 14.917C4.96969 14.2547 4.78205 13.5538 4.6995 12.8368C4.54939 12.6769 4.38073 12.5366 4.19558 12.4191C3.9541 12.2651 3.67322 12.183 3.38681 12.1824H2.43884C2.03097 12.1824 1.63699 12.3301 1.32939 12.598C1.21326 12.6992 1.07114 12.7645 0.91874 12.7867C0.766339 12.8089 0.610683 12.7871 0.470506 12.7233C0.33033 12.6595 0.211415 12.557 0.128067 12.4275C0.0447182 12.2979 0 12.1471 0 11.993C0 11.839 0.0447182 11.6882 0.128067 11.5586C0.211415 11.4291 0.33033 11.3259 0.470506 11.2621C0.610683 11.1982 0.766339 11.1765 0.91874 11.1987C1.07114 11.2209 1.21326 11.2862 1.32939 11.3874C1.63703 11.6552 2.03101 11.8031 2.43884 11.803H3.38681C3.67294 11.8033 3.95379 11.7221 4.19558 11.5691C4.38073 11.4516 4.54939 11.3112 4.6995 11.1514C4.7186 10.9858 4.74437 10.8209 4.77466 10.6571C4.70432 10.5148 4.6134 10.3834 4.506 10.2665C4.38198 10.1315 4.22231 10.0341 4.04524 9.98666L3.4578 9.83002C3.20565 9.76289 2.93898 9.78887 2.70472 9.90381C2.61606 9.9468 2.51577 9.96367 2.41796 9.95185C2.32015 9.94003 2.22795 9.90054 2.15208 9.83768C2.07621 9.77481 2.02042 9.69142 1.9906 9.59749C1.96079 9.50357 1.95931 9.40301 1.98504 9.30788C2.01076 9.21276 2.06229 9.12683 2.13538 9.06074C2.20846 8.99465 2.29987 8.95077 2.39708 8.93473C2.49428 8.91869 2.5934 8.93113 2.68384 8.97024C2.77427 9.00935 2.85165 9.0736 2.90656 9.15542C3.05225 9.37187 3.27128 9.52845 3.52323 9.5961L4.10927 9.75274C4.28524 9.80388 4.47342 9.80388 4.64938 9.75274C4.80076 9.70492 4.94345 9.63573 5.07534 9.54737C5.13088 9.39032 5.19163 9.23524 5.2577 9.08232C5.20773 8.86883 5.13227 8.66266 5.0308 8.4683C4.89823 8.21433 4.69557 8.00314 4.44754 7.85984L3.62763 7.38644C3.27402 7.18266 2.85876 7.11346 2.45833 7.1922C2.30718 7.22181 2.15042 7.20735 2.00731 7.15043C1.86419 7.09351 1.7405 6.9966 1.65095 6.87127C1.5614 6.74593 1.50949 6.59768 1.502 6.44381C1.49451 6.28995 1.53084 6.13727 1.6078 6.00383C1.68475 5.87039 1.7994 5.7618 1.93631 5.69125C2.07323 5.62069 2.22707 5.59083 2.38037 5.60562C2.53368 5.6204 2.67985 5.67937 2.80077 5.77479C2.92168 5.8702 3.01242 5.99807 3.06247 6.14376C3.19526 6.5297 3.46335 6.85482 3.81695 7.05854L4.63685 7.53263C4.88511 7.67551 5.16922 7.74494 5.45537 7.73244C5.67468 7.72363 5.89245 7.68698 6.10266 7.62383C6.53274 7.04418 7.04463 6.53078 7.62415 6.1006C7.68719 5.8907 7.72383 5.67353 7.73273 5.45455C7.74523 5.16833 7.67651 4.88485 7.53367 4.63654L7.05899 3.81575C6.85518 3.46254 6.52998 3.19508 6.14442 3.06248C5.99871 3.01254 5.87103 2.9216 5.77554 2.80072C5.68004 2.67984 5.6206 2.53357 5.60571 2.38023C5.59081 2.22689 5.62017 2.07307 5.69062 1.93607C5.76107 1.79906 5.87046 1.68523 6.00383 1.60817C6.1372 1.5311 6.28986 1.49356 6.44371 1.50096C6.59756 1.50836 6.7457 1.55973 6.87106 1.64924C6.99643 1.73875 7.09388 1.86255 7.15086 2.00569C7.20784 2.14882 7.22216 2.3056 7.19262 2.45681C7.11497 2.8574 7.1844 3.2726 7.3889 3.62569L7.86358 4.44648C8.00642 4.69448 8.21709 4.89698 8.47051 5.02988C8.665 5.13142 8.87214 5.20759 9.08578 5.25753C9.74792 4.97064 10.4486 4.78334 11.1655 4.70059C11.3251 4.55058 11.4643 4.38082 11.5817 4.19586C11.7358 3.95407 11.8179 3.67367 11.8183 3.3869V2.43871C11.8184 2.03078 11.6713 1.63671 11.4035 1.329C11.3025 1.21279 11.2377 1.06994 11.2156 0.917561C11.1935 0.76518 11.2158 0.60933 11.2796 0.469223C11.3435 0.329116 11.4453 0.210693 11.5747 0.1274C11.7042 0.0441074 11.8551 0 12.009 0C12.163 0 12.3139 0.0441074 12.4434 0.1274C12.5728 0.210693 12.676 0.329116 12.7399 0.469223C12.8037 0.60933 12.826 0.76518 12.8039 0.917561C12.7818 1.06994 12.7156 1.21279 12.6146 1.329C12.3468 1.63671 12.1997 2.03078 12.1998 2.43871V3.3869C12.1993 3.67338 12.2805 3.95377 12.4336 4.19586C12.5516 4.38093 12.6923 4.5507 12.8526 4.70059C13.0177 4.71972 13.182 4.7441 13.3454 4.77438C13.4878 4.70406 13.6196 4.61382 13.7366 4.50635C13.8716 4.38222 13.9689 4.222 14.0164 4.04479L14.1723 3.4593C14.2394 3.207 14.2135 2.93836 14.0985 2.70395C14.0551 2.61543 14.0384 2.51645 14.0498 2.41852C14.0612 2.32059 14.1 2.22807 14.1625 2.15188C14.2251 2.0757 14.3081 2.01917 14.4019 1.98898C14.4958 1.95878 14.5976 1.95661 14.6929 1.98202C14.7881 2.00742 14.8729 2.05947 14.9393 2.13239C15.0056 2.20531 15.0496 2.29553 15.0659 2.39276C15.0823 2.48999 15.0714 2.59038 15.0325 2.68098C14.9937 2.77158 14.9291 2.84861 14.8474 2.90375C14.6307 3.04952 14.4738 3.26896 14.4061 3.52126L14.2488 4.10744C14.1976 4.28354 14.1976 4.47019 14.2488 4.64628C14.2966 4.79779 14.3665 4.94172 14.4548 5.07374C14.612 5.12928 14.7668 5.19005 14.9198 5.25613C15.1327 5.20604 15.3384 5.12987 15.5323 5.02849C15.7864 4.89589 15.9972 4.69336 16.1406 4.44509L16.6167 3.6243C16.8202 3.27085 16.8887 2.85566 16.8102 2.45542C16.7808 2.3043 16.7949 2.148 16.8519 2.00499C16.9089 1.86198 17.0064 1.73799 17.1317 1.64855C17.257 1.5591 17.4053 1.50772 17.5591 1.50026C17.7128 1.4928 17.8656 1.52988 17.999 1.60678C18.1323 1.68368 18.2402 1.79716 18.3108 1.93398C18.3813 2.0708 18.4117 2.22489 18.3971 2.37814C18.3824 2.53139 18.3238 2.67765 18.2286 2.79863C18.1335 2.91962 18.0052 3.01013 17.8598 3.06039C17.4734 3.19258 17.1481 3.46078 16.9438 3.81435L16.4705 4.63515C16.3267 4.88317 16.257 5.16666 16.2687 5.45315C16.2776 5.67214 16.3142 5.88931 16.3772 6.09921C16.9568 6.52939 17.4686 7.04279 17.8987 7.62244C18.1089 7.68556 18.3268 7.72152 18.546 7.73035C18.8322 7.74285 19.1163 7.67412 19.3645 7.53124L20.1844 7.05714C20.5373 6.85306 20.8052 6.52799 20.9375 6.14237C20.9875 5.99672 21.077 5.86886 21.1978 5.77339C21.3186 5.67793 21.465 5.61915 21.6182 5.60422C21.7715 5.5893 21.9254 5.6188 22.0623 5.68916C22.1992 5.75952 22.3137 5.86777 22.3908 6.00104C22.4679 6.13432 22.5052 6.28652 22.498 6.44033C22.4908 6.59415 22.4383 6.74303 22.3491 6.86848C22.2598 6.99393 22.137 7.09114 21.9941 7.14834C21.8512 7.20554 21.6942 7.22005 21.5431 7.19081C21.1426 7.11206 20.7274 7.18127 20.3738 7.38504L19.5539 7.85844C19.3057 8.0017 19.1032 8.2129 18.9706 8.4669C18.8681 8.66113 18.7904 8.8673 18.7395 9.08093C18.8056 9.23385 18.8663 9.38893 18.9219 9.54598C19.0538 9.63434 19.1979 9.70353 19.3492 9.75135C19.5253 9.80255 19.7133 9.80255 19.8893 9.75135L20.4754 9.59471C20.7273 9.52706 20.9464 9.37047 21.092 9.15403C21.1472 9.0723 21.2242 9.00842 21.3148 8.96954C21.4054 8.93066 21.5057 8.9184 21.6029 8.93473C21.7001 8.95107 21.7903 8.99508 21.8632 9.06144C21.9361 9.1278 21.9882 9.21401 22.0136 9.30928C22.039 9.40454 22.0368 9.50503 22.0066 9.59889C21.9764 9.69274 21.9199 9.77579 21.8437 9.83837C21.7676 9.90095 21.6744 9.94045 21.5765 9.95185C21.4786 9.96324 21.3796 9.94584 21.2911 9.90242C21.0568 9.78748 20.7888 9.7615 20.5366 9.82862L19.952 9.98526C19.7748 10.0327 19.6153 10.13 19.4912 10.2651C19.3838 10.382 19.2943 10.5134 19.2239 10.6557C19.2552 10.8195 19.2805 10.9844 19.3005 11.15C19.4501 11.3097 19.6185 11.45 19.803 11.5677C20.0454 11.7211 20.3264 11.8023 20.6132 11.8016H21.5612C21.969 11.8017 22.363 11.6538 22.6706 11.386C22.7867 11.2848 22.9303 11.2195 23.0827 11.1973C23.2351 11.1751 23.3907 11.1968 23.5309 11.2607C23.6711 11.3245 23.79 11.4277 23.8733 11.5572C23.9567 11.6868 24 11.8376 24 11.9916C24 12.1457 23.9567 12.2958 23.8733 12.4254C23.79 12.5549 23.6711 12.6581 23.5309 12.7219C23.3907 12.7857 23.2351 12.8075 23.0827 12.7853C22.9303 12.7631 22.7867 12.6978 22.6706 12.5966C22.363 12.3287 21.969 12.181 21.5612 12.181H20.6132C20.3261 12.1812 20.0451 12.2633 19.803 12.4177C19.6185 12.5353 19.4501 12.6756 19.3005 12.8354C19.2805 13.001 19.2552 13.1659 19.2239 13.3297C19.2943 13.472 19.3838 13.6034 19.4912 13.7203C19.6153 13.8553 19.7748 13.9527 19.952 14.0001L20.5366 14.1568C20.7888 14.2239 21.0568 14.1972 21.2911 14.0823C21.3796 14.0388 21.4786 14.0221 21.5765 14.0335C21.6744 14.0449 21.7676 14.0844 21.8437 14.147C21.9199 14.2096 21.9764 14.2926 22.0066 14.3865C22.0368 14.4803 22.039 14.5808 22.0136 14.6761C21.9882 14.7714 21.9361 14.8576 21.8632 14.9239C21.7903 14.9903 21.7001 15.0336 21.6029 15.05C21.5057 15.0663 21.4054 15.0547 21.3148 15.0158C21.2242 14.977 21.1472 14.9131 21.092 14.8314C20.9464 14.6148 20.7274 14.4577 20.4754 14.39L19.8893 14.2333C19.7133 14.1821 19.5253 14.1821 19.3492 14.2333C19.1979 14.2812 19.0538 14.3503 18.9219 14.4387C18.8663 14.5957 18.8056 14.7509 18.7395 14.9038C18.7904 15.1174 18.8681 15.3236 18.9706 15.5178C19.1032 15.7719 19.3057 15.9829 19.5539 16.1262L20.3738 16.6003C20.7274 16.8041 21.1426 16.8726 21.5431 16.7939C21.6942 16.7646 21.8512 16.7798 21.9941 16.837C22.137 16.8942 22.2598 16.9914 22.3491 17.1169C22.4383 17.2423 22.4908 17.3905 22.498 17.5444C22.5052 17.6982 22.4679 17.8511 22.3908 17.9843C22.3137 18.1176 22.1992 18.2259 22.0623 18.2962C21.9254 18.3666 21.7715 18.3961 21.6182 18.3812C21.465 18.3662 21.3186 18.3074 21.1978 18.212C21.077 18.1165 20.9875 17.988 20.9375 17.8423C20.8053 17.4566 20.5373 17.1317 20.1844 16.9275L19.3645 16.4541C19.1163 16.3113 18.8322 16.2418 18.546 16.2543C18.3268 16.2632 18.1089 16.2991 17.8987 16.3622C17.4686 16.9418 16.9567 17.4554 16.3772 17.8855C16.3142 18.0955 16.2775 18.3125 16.2687 18.5315C16.257 18.818 16.3267 19.1015 16.4705 19.3495L16.9438 20.171C17.1481 20.5245 17.4735 20.7915 17.8598 20.9236C18.0052 20.9739 18.1335 21.0651 18.2286 21.1861C18.3238 21.307 18.3824 21.4533 18.3971 21.6065C18.4117 21.7598 18.3813 21.9139 18.3108 22.0507C18.2402 22.1875 18.1323 22.301 17.999 22.3779C17.8656 22.4548 17.7128 22.4919 17.5591 22.4844C17.4053 22.477 17.257 22.4256 17.1317 22.3361C17.0064 22.2467 16.9089 22.1227 16.8519 21.9797C16.7949 21.8367 16.7808 21.6804 16.8102 21.5293C16.8886 21.1291 16.8201 20.7138 16.6167 20.3604L16.1406 19.5396C15.9972 19.2913 15.7864 19.0895 15.5323 18.9569C15.3384 18.8555 15.1327 18.7786 14.9198 18.7285C14.7668 18.7946 14.612 18.8554 14.4548 18.9109C14.3665 19.043 14.2966 19.1869 14.2488 19.3384C14.1976 19.5145 14.1976 19.7018 14.2488 19.8779L14.4061 20.4634C14.4738 20.7157 14.6307 20.9352 14.8474 21.0809L14.846 21.0956Z" fill="white"/>
</svg>
