<svg width="395" height="226" viewBox="0 0 395 226" fill="none" xmlns="http://www.w3.org/2000/svg">
<rect width="395" height="226" rx="4" fill="#EEEEEE"/>
<path fill-rule="evenodd" clip-rule="evenodd" d="M170.697 79.7453C174.549 75.5436 179.941 73.1626 185.754 73.1626C191.566 73.1626 196.958 75.6136 200.81 79.7453H208.373C203.541 71.762 195.067 67 185.754 67C176.44 67 167.966 71.762 163.134 79.7453H170.697ZM198.851 140.601C195.069 140.601 191.988 139.55 189.677 137.38C187.016 134.858 185.755 131.427 185.755 127.015V119.802H194.439V127.015C194.439 128.906 194.859 130.237 195.629 130.937C196.33 131.567 197.38 131.917 198.851 131.917C200.391 131.917 201.442 131.637 202.072 130.937C202.842 130.237 203.262 128.906 203.262 127.015V123.514C203.262 121.063 202.282 118.962 200.321 117.211C199.901 116.861 198.781 116.161 197.03 115.18C194.579 113.85 192.758 112.729 191.568 111.679C189.677 109.998 188.206 108.107 187.226 105.936C186.245 103.765 185.755 101.455 185.755 99.0035V97.673C185.755 93.3311 187.086 89.8297 189.677 87.3086C191.988 85.1377 195.069 84.0873 198.851 84.0873C202.632 84.0873 205.713 85.1377 208.024 87.3086C210.686 89.8297 211.946 93.2611 211.946 97.673V102.505H203.262V97.673C203.262 95.7121 202.842 94.3816 202.072 93.7513C201.442 93.1211 200.391 92.7709 198.851 92.7709C197.38 92.7709 196.33 93.1211 195.629 93.7513C194.859 94.5216 194.439 95.7822 194.439 97.673V99.0035C194.439 101.455 195.419 103.485 197.38 105.236C197.94 105.656 198.921 106.287 200.461 107.127C203.192 108.598 205.083 109.788 206.134 110.768C210.055 114.27 211.946 118.472 211.946 123.584V127.085C211.946 131.427 210.616 134.928 208.024 137.45C205.713 139.48 202.632 140.601 198.851 140.601ZM162.434 131.147L160.824 139.9H152L163.065 84.6473H171.748L182.813 139.9H173.919L172.378 131.147H162.434ZM170.838 122.463L167.406 102.715L163.905 122.533H170.838V122.463ZM238.627 139.901H243.67V84.7179H234.986V112.66L221.75 84.7179H216.708V139.901H225.392V111.889L238.627 139.901ZM221.048 152.086C226.861 152.086 232.253 149.705 236.105 145.503H243.668C238.836 153.486 230.362 158.248 221.048 158.248C211.734 158.248 203.261 153.486 198.429 145.503H205.992C209.844 149.635 215.236 152.086 221.048 152.086Z" fill="url(#paint0_linear_8614_183797)"/>
<defs>
<linearGradient id="paint0_linear_8614_183797" x1="243.67" y1="67" x2="140.54" y2="82.6299" gradientUnits="userSpaceOnUse">
<stop stop-color="#3B53FF"/>
<stop offset="1" stop-color="#8A7FFA"/>
</linearGradient>
</defs>
</svg>
