<svg width="370" height="314" viewBox="0 0 370 314" fill="none" xmlns="http://www.w3.org/2000/svg">
<path d="M369.316 81.9241C368.653 81.9241 368.037 81.9715 367.374 81.9715C310.249 81.9715 253.171 81.9715 196.046 81.9715C195.667 81.9715 195.288 81.9715 194.909 81.9715C193.536 81.9715 193.441 82.0663 193.157 83.3464C192.067 88.514 190.93 93.7291 189.841 98.8968C188.515 105.107 187.188 111.366 185.862 117.576C185.815 117.766 185.767 117.955 185.72 118.145C185.578 118.477 185.389 118.524 185.104 118.335C184.962 118.24 184.82 118.098 184.678 117.955C181.978 115.443 179.325 112.93 176.626 110.417C173.499 107.478 170.373 104.586 167.199 101.694C164.026 98.7545 160.852 95.8151 157.726 92.8757C154.552 89.8889 151.331 86.9495 148.158 83.9627C147.684 83.536 147.21 83.1093 146.689 82.6826C146.074 82.2085 145.979 81.6396 146.121 80.881C146.879 77.4201 147.637 73.9118 148.347 70.4509C149.105 66.99 149.816 63.5765 150.574 60.1156C150.716 59.4044 150.574 58.9303 150.005 58.4562C148.253 56.8917 146.547 55.2798 144.842 53.6678C142.237 51.25 139.584 48.8321 136.979 46.4142C135.511 45.0867 134.09 43.7118 132.669 42.3843C129.542 39.4923 126.416 36.5529 123.243 33.6609C120.732 31.3379 118.316 28.9674 115.759 26.6917C114.48 25.5539 113.295 24.2264 111.922 23.136C111.638 22.8989 111.543 22.6619 111.638 22.2352C112.49 18.5372 113.295 14.8393 114.101 11.1413C114.811 7.82261 115.522 4.45652 116.232 1.13783C116.469 0.0474098 116.564 0 117.701 0C118.08 0 118.458 0 118.837 0C201.683 0 284.481 0 367.326 0C367.99 0 368.605 0 369.268 0.0474098C369.268 7.53815 369.268 15.0763 369.268 22.567C368.605 22.567 367.99 22.6145 367.326 22.6145C298.691 22.6145 230.009 22.6145 161.373 22.6145C160.9 22.6145 160.473 22.6145 160 22.6145C159.1 22.6619 158.958 22.7567 158.768 23.6101C158.105 26.6443 157.442 29.6785 156.826 32.7127C156.068 36.3159 155.31 39.919 154.552 43.5222C153.558 48.1683 152.516 52.7671 151.521 57.4132C151.142 59.2148 151.142 59.2148 152.942 59.2148C153.226 59.2148 153.463 59.2148 153.747 59.2148C202.914 59.2148 252.129 59.2148 301.296 59.2148C323.938 59.2148 346.627 59.2148 369.268 59.2148C369.316 66.7529 369.316 74.3385 369.316 81.9241Z" fill="#9B51E0"/>
<path d="M369.317 141.519C307.265 141.519 245.214 141.519 183.163 141.519C182.737 141.519 182.31 141.519 181.931 141.519C180.937 141.472 180.795 141.329 180.984 140.334C181.079 139.765 181.221 139.243 181.363 138.674C182.689 132.464 184.016 126.206 185.389 119.995C185.673 118.762 185.721 118.762 186.952 118.715C187.237 118.715 187.568 118.715 187.852 118.715C247.772 118.715 307.644 118.715 367.564 118.715C368.18 118.715 368.796 118.715 369.364 118.762C369.317 126.348 369.317 133.933 369.317 141.519Z" fill="#9B51E0"/>
<path d="M249.714 260.327C249.193 260.327 248.672 260.327 248.103 260.327C170.468 260.327 92.8331 260.327 15.1981 260.327C14.7718 260.327 14.3455 260.327 13.9665 260.327C13.1139 260.28 12.9718 260.09 13.1139 259.284C13.3508 257.957 13.635 256.629 13.9192 255.254C15.056 249.755 16.1928 244.255 17.2823 238.756C17.5191 237.618 17.6138 237.571 18.7033 237.571C19.1296 237.571 19.5559 237.571 19.9348 237.571C81.4176 237.571 142.948 237.571 204.431 237.571C204.904 237.571 205.331 237.571 205.804 237.571C207.131 237.571 207.131 237.571 207.415 236.196C208.694 230.317 209.925 224.486 211.204 218.607C212.341 213.297 213.478 207.987 214.615 202.724C214.662 202.535 214.709 202.345 214.757 202.156C214.899 201.35 214.804 201.255 213.999 201.207C213.525 201.207 213.099 201.207 212.625 201.207C151.095 201.207 89.5648 201.207 28.0346 201.207C27.561 201.207 27.1347 201.207 26.661 201.207C25.8557 201.16 25.761 201.018 25.9031 200.212C26.2347 198.6 26.6136 196.94 26.9926 195.329C28.1767 190.113 29.3609 184.898 30.4977 179.683C30.7346 178.546 30.8293 178.451 32.0135 178.451C32.3924 178.451 32.7714 178.451 33.1503 178.451C78.9072 178.451 124.711 178.451 170.468 178.451C170.942 178.451 171.368 178.451 171.842 178.451C172.742 178.403 172.884 178.308 173.073 177.408C173.5 175.369 173.973 173.33 174.4 171.292C176.058 163.659 177.668 156.026 179.326 148.393C179.705 146.686 180.036 144.979 180.415 143.273C180.463 142.941 180.557 142.609 180.652 142.277C180.747 141.993 180.936 141.945 181.173 142.087C181.315 142.182 181.41 142.277 181.505 142.372C183.163 143.936 184.773 145.501 186.478 147.065C188.941 149.341 191.452 151.617 193.915 153.892C195.526 155.362 197.089 156.927 198.699 158.396C201.257 160.767 203.815 163.09 206.373 165.46C207.983 166.93 209.546 168.495 211.157 169.964C213.809 172.43 216.462 174.848 219.067 177.265C219.304 177.455 219.493 177.692 219.73 177.882C220.204 178.308 220.299 178.783 220.157 179.399C219.114 184.14 218.12 188.881 217.078 193.622C216.604 195.755 216.225 197.936 215.704 200.07C215.515 200.875 215.751 201.444 216.32 201.966C218.783 204.194 221.246 206.47 223.709 208.698C225.32 210.168 226.883 211.732 228.493 213.202C231.098 215.62 233.751 218.038 236.356 220.456C238.014 221.973 239.625 223.537 241.235 225.054C243.745 227.378 246.303 229.701 248.814 232.071C250.519 233.683 252.224 235.295 253.929 236.907C254.403 237.334 254.593 237.76 254.403 238.424C253.977 240.226 253.598 242.075 253.219 243.876C252.129 248.996 251.04 254.117 249.903 259.237C249.998 259.616 249.903 259.995 249.714 260.327Z" fill="#9B51E0"/>
<path d="M249.714 260.328C250.093 260.47 250.425 260.707 250.756 260.992C252.556 262.699 254.309 264.405 256.109 266.065C259.188 268.957 262.314 271.849 265.393 274.741C267.335 276.59 269.277 278.439 271.219 280.288C274.25 283.132 277.329 285.977 280.361 288.821C282.35 290.67 284.292 292.567 286.282 294.463C286.85 295.032 287.419 295.554 288.082 296.075C288.84 296.644 289.029 297.355 288.84 298.256C288.224 300.958 287.655 303.661 287.087 306.363C286.329 310.014 285.571 313.617 284.719 317.267C284.056 320.254 284.482 319.733 281.829 319.733C188.563 319.733 95.344 319.733 2.07775 319.733C1.60408 319.733 1.08304 319.733 0.609364 319.733C0.135691 319.733 -0.101146 319.495 0.0409561 319.021C0.135691 318.547 0.230425 318.073 0.32516 317.552C1.74618 311.246 3.1672 304.988 4.58822 298.683C4.96716 296.976 4.73032 296.928 6.86185 296.928C42.34 296.928 77.7708 296.928 113.249 296.928C155.453 296.928 197.657 296.928 239.862 296.928C242.325 296.928 241.946 296.976 242.42 294.89C244.172 286.783 245.925 278.676 247.63 270.521C248.246 267.534 248.909 264.595 249.525 261.608C249.619 261.229 249.667 260.755 249.714 260.328Z" fill="#9B51E0"/>
<path d="M369.317 81.9241C368.654 81.9241 368.038 81.9715 367.375 81.9715C310.25 81.9715 253.173 81.9715 196.048 81.9715C195.669 81.9715 195.29 81.9715 194.911 81.9715C193.537 81.9715 193.442 82.0663 193.158 83.3464C192.069 88.514 190.932 93.7291 189.842 98.8968C188.516 105.107 187.19 111.366 185.864 117.576C185.816 117.766 185.769 117.955 185.722 118.145C185.579 118.477 185.39 118.524 185.106 118.335C184.964 118.24 184.822 118.098 184.679 117.955C181.98 115.443 179.327 112.93 176.627 110.417C173.501 107.478 170.375 104.586 167.201 101.694C164.027 98.7545 160.854 95.8151 157.727 92.8757C154.554 89.8889 151.333 86.9495 148.159 83.9627C147.686 83.536 147.212 83.1093 146.691 82.6826C146.075 82.2085 145.98 81.6396 146.122 80.881C146.88 77.4201 147.638 73.9118 148.349 70.4509C149.107 66.99 149.817 63.5765 150.575 60.1156C150.717 59.4044 150.575 58.9303 150.007 58.4562C148.254 56.8917 146.549 55.2798 144.844 53.6678C142.238 51.25 139.586 48.8321 136.981 46.4142C135.512 45.0867 134.091 43.7118 132.67 42.3843C129.544 39.4923 126.418 36.5529 123.244 33.6609C120.734 31.3379 118.318 28.9674 115.76 26.6917C114.481 25.5539 113.297 24.2264 111.923 23.136C111.639 22.8989 111.544 22.6619 111.639 22.2352C112.492 18.5372 113.297 14.8393 114.102 11.1413C114.813 7.82261 115.523 4.45652 116.234 1.13783C116.471 0.0474098 116.565 0 117.702 0C118.081 0 118.46 0 118.839 0C201.684 0 284.482 0 367.328 0C367.991 0 368.607 0 369.27 0.0474098C369.27 7.53815 369.27 15.0763 369.27 22.567C368.607 22.567 367.991 22.6145 367.328 22.6145C298.693 22.6145 230.01 22.6145 161.375 22.6145C160.901 22.6145 160.475 22.6145 160.001 22.6145C159.101 22.6619 158.959 22.7567 158.77 23.6101C158.106 26.6443 157.443 29.6785 156.827 32.7127C156.07 36.3159 155.312 39.919 154.554 43.5222C153.559 48.1683 152.517 52.7671 151.522 57.4132C151.143 59.2148 151.143 59.2148 152.943 59.2148C153.228 59.2148 153.464 59.2148 153.749 59.2148C202.916 59.2148 252.131 59.2148 301.298 59.2148C323.939 59.2148 346.628 59.2148 369.27 59.2148C369.317 66.7529 369.317 74.3385 369.317 81.9241Z" fill="#9B51E0"/>
<path d="M369.317 141.519C307.265 141.519 245.214 141.519 183.163 141.519C182.737 141.519 182.31 141.519 181.931 141.519C180.937 141.472 180.795 141.329 180.984 140.334C181.079 139.765 181.221 139.243 181.363 138.674C182.689 132.464 184.016 126.206 185.389 119.995C185.673 118.762 185.721 118.762 186.952 118.715C187.237 118.715 187.568 118.715 187.852 118.715C247.772 118.715 307.644 118.715 367.564 118.715C368.18 118.715 368.796 118.715 369.364 118.762C369.317 126.348 369.317 133.933 369.317 141.519Z" fill="#9B51E0"/>
<path d="M249.714 260.328C250.093 260.47 250.425 260.707 250.756 260.992C252.556 262.699 254.309 264.405 256.109 266.065C259.188 268.957 262.314 271.849 265.393 274.741C267.335 276.59 269.277 278.439 271.219 280.288C274.25 283.132 277.329 285.977 280.361 288.821C282.35 290.67 284.292 292.567 286.282 294.463C286.85 295.032 287.419 295.554 288.082 296.075C288.84 296.644 289.029 297.355 288.84 298.256C288.224 300.958 287.655 303.661 287.087 306.363C286.329 310.014 285.571 313.617 284.719 317.267C284.056 320.254 284.482 319.733 281.829 319.733C188.563 319.733 95.344 319.733 2.07775 319.733C1.60408 319.733 1.08304 319.733 0.609364 319.733C0.135691 319.733 -0.101146 319.495 0.0409561 319.021C0.135691 318.547 0.230425 318.073 0.32516 317.552C1.74618 311.246 3.1672 304.988 4.58822 298.683C4.96716 296.976 4.73032 296.928 6.86185 296.928C42.34 296.928 77.7708 296.928 113.249 296.928C155.453 296.928 197.657 296.928 239.862 296.928C242.325 296.928 241.946 296.976 242.42 294.89C244.172 286.783 245.925 278.676 247.63 270.521C248.246 267.534 248.909 264.595 249.525 261.608C249.619 261.229 249.667 260.755 249.714 260.328Z" fill="#9B51E0"/>
</svg>
