<svg width="18" height="18" viewBox="0 0 18 18" fill="none" xmlns="http://www.w3.org/2000/svg">
<path d="M16.3433 5.06874C16.3433 5.05957 16.335 5.05039 16.3308 5.04122C15.6168 3.71829 14.5582 2.61317 13.2672 1.84293C11.9762 1.07268 10.5008 0.666016 8.99751 0.666016C7.49418 0.666016 6.01886 1.07268 4.72784 1.84293C3.43683 2.61317 2.37817 3.71829 1.66413 5.04122C1.66033 5.04821 1.65702 5.05545 1.65416 5.06289C1.00398 6.27213 0.663666 7.6237 0.663666 8.99665C0.663666 10.3696 1.00398 11.7211 1.65416 12.9304C1.65416 12.9387 1.66163 12.9445 1.66413 12.952C2.37817 14.275 3.43683 15.3801 4.72784 16.1504C6.01886 16.9206 7.49418 17.3273 8.99751 17.3273C10.5008 17.3273 11.9762 16.9206 13.2672 16.1504C14.5582 15.3801 15.6168 14.275 16.3308 12.952C16.3358 12.9429 16.3408 12.9337 16.345 12.9246C16.9944 11.716 17.3342 10.3653 17.3342 8.9933C17.3342 7.62129 16.9944 6.27067 16.345 5.06207L16.3433 5.06874ZM16.5192 8.60288H12.4125C12.3993 7.59969 12.3093 6.599 12.1433 5.60956H15.7266C16.1972 6.54094 16.4672 7.56066 16.5192 8.60288ZM15.2692 4.81539H11.9842C11.7688 3.6795 11.3189 2.60101 10.6633 1.64873C12.546 2.07741 14.1931 3.21049 15.2666 4.81539H15.2692ZM6.38251 8.60288C6.39801 7.59882 6.49554 6.59772 6.67415 5.60956H11.3316C11.5104 6.59769 11.6077 7.59882 11.6225 8.60288H6.38251ZM11.6217 9.39623C11.6069 10.4006 11.5096 11.402 11.3308 12.3904H6.66749C6.48883 11.402 6.3913 10.4006 6.37584 9.39623H11.6217ZM9.00249 1.45957C9.79749 1.45957 10.65 2.73456 11.1608 4.81539H6.84251C7.35251 2.73456 8.20415 1.45957 9.00081 1.45957H9.00249ZM7.33583 1.65122C6.68023 2.6035 6.23036 3.68199 6.01497 4.81788H2.73164C3.8049 3.21309 5.45176 2.08002 7.33415 1.65122H7.33583ZM2.27499 5.60956H5.85832C5.6927 6.59905 5.60272 7.59971 5.58915 8.60288H1.4825C1.53499 7.56101 1.80493 6.54165 2.27499 5.61037V5.60956ZM1.48001 9.39704H5.58417C5.59769 10.4005 5.68767 11.4015 5.85333 12.3912H2.27001C1.8005 11.459 1.5314 10.4388 1.48001 9.39623V9.39704ZM2.73001 13.1854H6.01335C6.22829 14.3214 6.67814 15.4 7.33415 16.3521C5.4519 15.9229 3.80535 14.7896 2.7325 13.1846L2.73001 13.1854ZM8.99751 16.5404C8.20167 16.5404 7.35001 15.2662 6.83834 13.1854H11.1567C10.6475 15.2654 9.79498 16.5396 9.00081 16.5396L8.99751 16.5404ZM10.6642 16.3496C11.3199 15.3973 11.7697 14.3188 11.985 13.1829H15.2675C14.1945 14.7865 12.5487 15.9189 10.6675 16.3479L10.6642 16.3496ZM15.725 12.392H12.1416C12.3077 11.4023 12.3977 10.4014 12.4108 9.39791H16.5175C16.4655 10.4401 16.1956 11.4598 15.725 12.3912V12.392Z" fill="#000000"/>
</svg>
