<svg width="15" height="15" viewBox="0 0 15 15" fill="none" xmlns="http://www.w3.org/2000/svg">
<path d="M7.5 0C3.3645 0 0 3.3645 0 7.5C0 11.6355 3.3645 15 7.5 15C11.6355 15 15 11.6355 15 7.5C15 3.3645 11.6355 0 7.5 0ZM7.5 3.075C7.69284 3.075 7.88134 3.13218 8.04168 3.23932C8.20202 3.34645 8.32699 3.49873 8.40078 3.67688C8.47458 3.85504 8.49389 4.05108 8.45627 4.24021C8.41865 4.42934 8.32579 4.60307 8.18943 4.73943C8.05307 4.87579 7.87935 4.96865 7.69021 5.00627C7.50108 5.04389 7.30504 5.02458 7.12688 4.95078C6.94873 4.87699 6.79645 4.75202 6.68932 4.59168C6.58218 4.43134 6.525 4.24284 6.525 4.05C6.525 3.79141 6.62772 3.54342 6.81057 3.36057C6.99342 3.17772 7.24141 3.075 7.5 3.075ZM9.3 11.55H6C5.84087 11.55 5.68826 11.4868 5.57574 11.3743C5.46321 11.2617 5.4 11.1091 5.4 10.95C5.4 10.7909 5.46321 10.6383 5.57574 10.5257C5.68826 10.4132 5.84087 10.35 6 10.35H7.05V7.05H6.45C6.29087 7.05 6.13826 6.98679 6.02574 6.87426C5.91321 6.76174 5.85 6.60913 5.85 6.45C5.85 6.29087 5.91321 6.13826 6.02574 6.02574C6.13826 5.91321 6.29087 5.85 6.45 5.85H7.65C7.80913 5.85 7.96174 5.91321 8.07426 6.02574C8.18679 6.13826 8.25 6.29087 8.25 6.45V10.35H9.3C9.45913 10.35 9.61174 10.4132 9.72427 10.5257C9.83679 10.6383 9.9 10.7909 9.9 10.95C9.9 11.1091 9.83679 11.2617 9.72427 11.3743C9.61174 11.4868 9.45913 11.55 9.3 11.55Z" fill="#000000"/>
</svg>
