<svg width="21" height="21" viewBox="0 0 21 21" fill="none" xmlns="http://www.w3.org/2000/svg">
<path d="M0.563761 20.6041L0.563761 7.33654L4.73356 7.33654L4.73356 20.6041H0.563761ZM2.64866 0.702759C3.97542 0.702759 5.01787 1.74521 5.01787 3.07197C5.01787 4.39873 3.97542 5.44118 2.64866 5.44118C1.32191 5.44118 0.279454 4.39873 0.279454 3.07197C0.184686 1.74521 1.32191 0.702759 2.64866 0.702759Z" fill="#000000"/>
<path d="M11.3673 7.33654V9.13714C12.1254 8.09469 13.2627 6.95747 15.2528 6.95747C19.4226 6.95747 20.1808 9.70575 20.1808 13.3069V20.6041H16.011L16.011 14.1599C16.011 12.6436 16.011 10.6534 13.8313 10.6534C11.6516 10.6534 11.3673 12.3593 11.3673 14.0651L11.3673 20.6989L7.1975 20.6989L7.1975 7.33654L11.3673 7.33654Z" fill="#000000"/>
</svg>
