<svg width="25" height="21" viewBox="0 0 25 21" fill="none" xmlns="http://www.w3.org/2000/svg">
<path d="M19.1563 14.9318C20.104 13.6051 20.9569 12.0888 21.336 10.4777C21.7151 8.96144 21.9046 7.44514 21.9046 5.92885C21.9046 5.73931 22.0942 5.73931 22.1889 5.64455C22.9471 5.07594 23.5157 4.41256 24.0843 3.74918C24.1791 3.55964 24.1791 3.46487 24.1791 3.3701C24.1791 3.27534 24.1791 3.3701 24.0843 3.3701C23.3261 3.74918 22.568 3.93872 21.7151 4.03348C22.0942 3.93872 22.6628 3.27534 22.8523 2.99103C23.2314 2.61196 23.5157 2.04335 23.6104 1.56951V1.47474C23.5157 1.47474 23.5157 1.47474 23.5157 1.47474C22.6628 1.94858 21.7151 2.32765 20.6726 2.51719C20.5779 2.51719 20.5779 2.51719 20.4831 2.42242C20.3883 2.32765 20.2936 2.23288 20.1988 2.13812C19.8197 1.75904 19.3459 1.47474 18.872 1.2852C18.2087 1.0009 17.5453 0.906128 16.7871 0.906128C16.1237 0.906128 15.4604 1.19043 14.797 1.47474C14.2284 1.75904 13.6598 2.23288 13.1859 2.80149C12.7121 3.3701 12.4278 4.03348 12.2382 4.69686C12.0487 5.36024 12.0487 6.02362 12.1435 6.687L9.11089 6.21316C6.55214 5.45501 4.2777 4.12825 2.38233 1.94858C2.28757 1.85381 2.1928 1.85381 2.09803 1.94858C0.960809 3.65441 1.52942 6.40269 2.95094 7.72945C3.14048 7.91899 3.33002 8.10852 3.51955 8.20329C3.42479 8.20329 2.4771 8.10852 1.62419 7.72945C1.52942 7.63468 1.43465 7.72945 1.43465 7.82422C1.43465 8.01376 1.43465 8.20329 1.43465 8.39283C1.62419 10.0987 2.85618 11.7097 4.46724 12.3731C4.65678 12.4679 4.84631 12.5626 5.13062 12.5626C4.75154 12.6574 4.37247 12.6574 3.33002 12.6574C3.23525 12.6574 3.14048 12.6574 3.23525 12.8469C3.9934 15.0266 5.79399 15.69 7.02598 16.0691C7.21552 16.0691 7.40506 16.0691 7.49983 16.1638C7.02598 16.8272 5.60446 17.3011 4.84631 17.5854C3.61432 18.0592 2.1928 18.2487 0.86604 18.0592C0.676503 18.0592 0.581735 18.0592 0.581735 18.0592C0.486966 18.0592 0.581735 18.154 0.676504 18.2487C0.86604 18.3435 1.05558 18.533 1.33988 18.6278C1.90849 18.9121 2.57187 19.2912 3.14048 19.4807C6.64691 20.7127 10.6272 20.7127 14.0388 19.1964C16.1237 18.154 17.8296 16.6377 19.1563 14.9318Z" fill="#000000"/>
<path fill-rule="evenodd" clip-rule="evenodd" d="M7.68932 20.2389C7.78409 20.2389 9.67946 20.2389 7.68932 20.2389Z" fill="#000000"/>
<path fill-rule="evenodd" clip-rule="evenodd" d="M8.44752 20.2389C8.92136 20.2389 8.44752 20.1441 8.44752 20.2389Z" fill="#000000"/>
</svg>
