<svg width="13" height="10" viewBox="0 0 13 10" fill="none" xmlns="http://www.w3.org/2000/svg">
<path d="M12.0816 0.764706H3.49334C3.42863 0.764706 3.37569 0.812353 3.37569 0.870588V1.61176C3.37569 1.67 3.42863 1.71765 3.49334 1.71765H12.0816C12.1463 1.71765 12.1992 1.67 12.1992 1.61176V0.870588C12.1992 0.812353 12.1463 0.764706 12.0816 0.764706ZM12.0816 4.52353H3.49334C3.42863 4.52353 3.37569 4.57118 3.37569 4.62941V5.37059C3.37569 5.42882 3.42863 5.47647 3.49334 5.47647H12.0816C12.1463 5.47647 12.1992 5.42882 12.1992 5.37059V4.62941C12.1992 4.57118 12.1463 4.52353 12.0816 4.52353ZM12.0816 8.28235H3.49334C3.42863 8.28235 3.37569 8.33 3.37569 8.38824V9.12941C3.37569 9.18765 3.42863 9.23529 3.49334 9.23529H12.0816C12.1463 9.23529 12.1992 9.18765 12.1992 9.12941V8.38824C12.1992 8.33 12.1463 8.28235 12.0816 8.28235ZM0.199219 1.24118C0.199219 1.33851 0.22052 1.43489 0.261906 1.52481C0.303292 1.61474 0.363953 1.69644 0.440425 1.76527C0.516897 1.83409 0.607682 1.88869 0.707597 1.92593C0.807512 1.96318 0.914601 1.98235 1.02275 1.98235C1.1309 1.98235 1.23798 1.96318 1.3379 1.92593C1.43781 1.88869 1.5286 1.83409 1.60507 1.76527C1.68154 1.69644 1.7422 1.61474 1.78359 1.52481C1.82498 1.43489 1.84628 1.33851 1.84628 1.24118C1.84628 1.14384 1.82498 1.04746 1.78359 0.957541C1.7422 0.867617 1.68154 0.78591 1.60507 0.717086C1.5286 0.648261 1.43781 0.593666 1.3379 0.556419C1.23798 0.519171 1.1309 0.5 1.02275 0.5C0.914601 0.5 0.807512 0.519171 0.707597 0.556419C0.607682 0.593666 0.516897 0.648261 0.440425 0.717086C0.363953 0.78591 0.303292 0.867617 0.261906 0.957541C0.22052 1.04746 0.199219 1.14384 0.199219 1.24118V1.24118ZM0.199219 5C0.199219 5.09733 0.22052 5.19371 0.261906 5.28364C0.303292 5.37356 0.363953 5.45527 0.440425 5.52409C0.516897 5.59292 0.607682 5.64751 0.707597 5.68476C0.807512 5.72201 0.914601 5.74118 1.02275 5.74118C1.1309 5.74118 1.23798 5.72201 1.3379 5.68476C1.43781 5.64751 1.5286 5.59292 1.60507 5.52409C1.68154 5.45527 1.7422 5.37356 1.78359 5.28364C1.82498 5.19371 1.84628 5.09733 1.84628 5C1.84628 4.90267 1.82498 4.80629 1.78359 4.71636C1.7422 4.62644 1.68154 4.54473 1.60507 4.47591C1.5286 4.40708 1.43781 4.35249 1.3379 4.31524C1.23798 4.27799 1.1309 4.25882 1.02275 4.25882C0.914601 4.25882 0.807512 4.27799 0.707597 4.31524C0.607682 4.35249 0.516897 4.40708 0.440425 4.47591C0.363953 4.54473 0.303292 4.62644 0.261906 4.71636C0.22052 4.80629 0.199219 4.90267 0.199219 5V5ZM0.199219 8.75882C0.199219 8.85616 0.22052 8.95254 0.261906 9.04246C0.303292 9.13238 0.363953 9.21409 0.440425 9.28291C0.516897 9.35174 0.607682 9.40633 0.707597 9.44358C0.807512 9.48083 0.914601 9.5 1.02275 9.5C1.1309 9.5 1.23798 9.48083 1.3379 9.44358C1.43781 9.40633 1.5286 9.35174 1.60507 9.28291C1.68154 9.21409 1.7422 9.13238 1.78359 9.04246C1.82498 8.95254 1.84628 8.85616 1.84628 8.75882C1.84628 8.66149 1.82498 8.56511 1.78359 8.47519C1.7422 8.38526 1.68154 8.30356 1.60507 8.23473C1.5286 8.16591 1.43781 8.11131 1.3379 8.07407C1.23798 8.03682 1.1309 8.01765 1.02275 8.01765C0.914601 8.01765 0.807512 8.03682 0.707597 8.07407C0.607682 8.11131 0.516897 8.16591 0.440425 8.23473C0.363953 8.30356 0.303292 8.38526 0.261906 8.47519C0.22052 8.56511 0.199219 8.66149 0.199219 8.75882V8.75882Z" fill="#1A2C31"/>
</svg>
