<svg width="19" height="17" viewBox="0 0 19 17" fill="none" xmlns="http://www.w3.org/2000/svg">
<path d="M9.49804 0.166543C9.36617 0.165154 9.23913 0.216145 9.1448 0.308323C9.05048 0.400501 8.9966 0.526318 8.99495 0.658194V16.3405C8.99495 16.474 9.04791 16.6019 9.14226 16.6963C9.23662 16.7906 9.36461 16.8436 9.49804 16.8436C9.63148 16.8436 9.75947 16.7906 9.85383 16.6963C9.94818 16.6019 10.0012 16.474 10.0012 16.3405V0.658194C10.0005 0.592854 9.98694 0.528315 9.96128 0.468222C9.93561 0.40813 9.89834 0.353675 9.8516 0.308005C9.80487 0.262335 9.74957 0.226359 9.68891 0.202084C9.62824 0.177809 9.56338 0.165718 9.49804 0.166543ZM7.3189 0.249895H2.42305C1.82213 0.244302 1.2433 0.476238 0.812553 0.895278C0.381808 1.31432 0.134007 1.88656 0.123047 2.48741V14.5197C0.135353 15.118 0.382679 15.6874 0.811536 16.1047C1.24039 16.5221 1.81632 16.7539 2.41473 16.7499H6.96261C7.09314 16.7499 7.21833 16.698 7.31063 16.6057C7.40294 16.5134 7.45483 16.3882 7.45483 16.2577C7.45483 16.1272 7.40294 16.002 7.31063 15.9097C7.21833 15.8174 7.09314 15.7655 6.96261 15.7655H2.42929C2.25977 15.7683 2.0914 15.7375 1.93376 15.6751C1.77611 15.6128 1.63234 15.52 1.51058 15.402C1.38964 15.2871 1.29304 15.149 1.22664 14.996C1.16024 14.843 1.12538 14.6781 1.12409 14.5113V2.49052C1.1312 2.15179 1.272 1.8296 1.51573 1.59426C1.75946 1.35892 2.08638 1.22953 2.42515 1.23428H7.31159C7.44199 1.23428 7.56703 1.18248 7.65923 1.09027C7.75144 0.998067 7.80324 0.873024 7.80324 0.742626C7.80324 0.612228 7.75144 0.487122 7.65923 0.394917C7.56703 0.302711 7.44199 0.250912 7.31159 0.250912L7.3189 0.249895ZM11.8595 15.7624C11.7283 15.7631 11.6024 15.8148 11.5086 15.9066C11.4147 15.9983 11.3602 16.1229 11.3564 16.2541C11.3583 16.3859 11.4123 16.5115 11.5065 16.6036C11.6008 16.6957 11.7277 16.7468 11.8595 16.7457C11.925 16.7471 11.9901 16.7354 12.051 16.7113C12.1119 16.6873 12.1675 16.6513 12.2143 16.6055C12.2611 16.5598 12.2984 16.5051 12.3238 16.4447C12.3493 16.3844 12.3625 16.3196 12.3626 16.2541C12.3607 16.1225 12.3069 15.9969 12.2128 15.9048C12.1188 15.8127 11.9922 15.7615 11.8605 15.7624H11.8595ZM17.9012 1.81138C18.0261 1.80759 18.1462 1.76248 18.2429 1.6832C18.2908 1.63945 18.3296 1.58669 18.3571 1.52788C18.3846 1.46907 18.4002 1.40537 18.403 1.34052C18.4058 1.27566 18.3957 1.21094 18.3734 1.14997C18.3511 1.08901 18.3171 1.03304 18.2731 0.985305C18.181 0.888748 18.055 0.831737 17.9217 0.826295C17.7883 0.820854 17.6581 0.867391 17.5584 0.956122C17.5066 1.00126 17.4653 1.05722 17.4374 1.12003C17.4096 1.18283 17.3958 1.25096 17.397 1.31966C17.3965 1.44378 17.4434 1.56345 17.5282 1.65408C17.6267 1.75269 17.7597 1.80911 17.8991 1.81138H17.9012ZM12.0335 0.248877C11.9017 0.247763 11.7748 0.298792 11.6805 0.390911C11.5862 0.48303 11.5322 0.608739 11.5303 0.740528C11.5306 0.805989 11.5439 0.870727 11.5694 0.931009C11.5949 0.991291 11.6322 1.04592 11.679 1.09167C11.7258 1.13742 11.7813 1.1734 11.8421 1.19753C11.903 1.22165 11.968 1.23342 12.0335 1.23218C12.1652 1.23302 12.2919 1.18182 12.3861 1.08976C12.4803 0.997703 12.5344 0.87223 12.5366 0.740528C12.5333 0.608621 12.4787 0.4832 12.3843 0.390975C12.2899 0.29875 12.1633 0.247011 12.0314 0.246779L12.0335 0.248877ZM18.3741 6.61446C18.2435 6.61446 18.1184 6.66635 18.0261 6.75866C17.9338 6.85096 17.8819 6.97615 17.8819 7.10669C17.8819 7.23722 17.9338 7.36241 18.0261 7.45471C18.1184 7.54702 18.2435 7.59884 18.3741 7.59884C18.5046 7.59884 18.6298 7.54702 18.7221 7.45471C18.8144 7.36241 18.8663 7.23722 18.8663 7.10669C18.8663 6.97615 18.8144 6.85096 18.7221 6.75866C18.6298 6.66635 18.5046 6.61446 18.3741 6.61446ZM17.871 4.15513C17.8732 4.28683 17.9272 4.4123 18.0214 4.50436C18.1156 4.59642 18.2424 4.64762 18.3741 4.64678C18.5053 4.64602 18.6311 4.59431 18.725 4.50258C18.8188 4.41086 18.8735 4.28631 18.8772 4.15513C18.8753 4.02334 18.8213 3.89763 18.7271 3.80551C18.6328 3.71339 18.5059 3.6623 18.3741 3.66341C18.3086 3.66175 18.2434 3.67316 18.1824 3.69698C18.1214 3.7208 18.0657 3.75655 18.0187 3.80214C17.9716 3.84773 17.9342 3.90224 17.9084 3.96248C17.8827 4.02273 17.8693 4.08752 17.8689 4.15303L17.871 4.15513ZM14.8814 15.7645C14.7502 15.7652 14.6243 15.8169 14.5305 15.9087C14.4366 16.0004 14.382 16.1249 14.3782 16.2561C14.3802 16.3879 14.4342 16.5136 14.5284 16.6057C14.6227 16.6978 14.7496 16.7489 14.8814 16.7478C14.9469 16.7492 15.012 16.7375 15.0729 16.7134C15.1338 16.6894 15.1893 16.6534 15.2362 16.6076C15.283 16.5618 15.3202 16.5071 15.3457 16.4468C15.3712 16.3864 15.3844 16.3216 15.3845 16.2561C15.3838 16.1905 15.3702 16.1257 15.3444 16.0654C15.3187 16.005 15.2813 15.9503 15.2343 15.9045C15.1874 15.8586 15.1319 15.8225 15.0709 15.7981C15.01 15.7737 14.9449 15.7615 14.8793 15.7624L14.8814 15.7645ZM18.3741 12.5176C18.3086 12.5162 18.2435 12.5279 18.1826 12.552C18.1217 12.576 18.0662 12.6121 18.0193 12.6578C17.9725 12.7036 17.9352 12.7583 17.9098 12.8186C17.8843 12.879 17.8711 12.9438 17.871 13.0093C17.8732 13.141 17.9272 13.2665 18.0214 13.3585C18.1156 13.4506 18.2424 13.5018 18.3741 13.5009C18.5053 13.5002 18.6311 13.4485 18.725 13.3567C18.8188 13.265 18.8735 13.1405 18.8772 13.0093C18.877 12.9434 18.8637 12.8782 18.8381 12.8175C18.8125 12.7568 18.7751 12.7017 18.7281 12.6555C18.6812 12.6094 18.6255 12.5729 18.5644 12.5484C18.5032 12.5238 18.4379 12.5115 18.372 12.5124L18.3741 12.5176ZM18.3741 9.56551C18.3086 9.56413 18.2435 9.57583 18.1826 9.59991C18.1217 9.62398 18.0662 9.65992 18.0193 9.7057C17.9725 9.75148 17.9352 9.80615 17.9098 9.86649C17.8843 9.92684 17.8711 9.99166 17.871 10.0572C17.8732 10.1889 17.9272 10.3144 18.0214 10.4065C18.1156 10.4985 18.2424 10.5497 18.3741 10.5489C18.5053 10.5481 18.6311 10.4964 18.725 10.4047C18.8188 10.313 18.8735 10.1883 18.8772 10.0572C18.8764 9.99164 18.8627 9.92691 18.8369 9.86668C18.811 9.80646 18.7736 9.75196 18.7267 9.70621C18.6798 9.66046 18.6243 9.62435 18.5634 9.60003C18.5026 9.57572 18.4375 9.56367 18.372 9.5645L18.3741 9.56551ZM15.0533 0.248877C14.9215 0.247763 14.7946 0.298792 14.7003 0.390911C14.6061 0.48303 14.552 0.608739 14.5501 0.740528C14.5504 0.805989 14.5637 0.870727 14.5892 0.931009C14.6147 0.991291 14.652 1.04592 14.6988 1.09167C14.7456 1.13742 14.801 1.1734 14.8619 1.19753C14.9227 1.22165 14.9878 1.23342 15.0533 1.23218C15.185 1.23302 15.3117 1.18182 15.4059 1.08976C15.5001 0.997703 15.5542 0.87223 15.5564 0.740528C15.5534 0.608534 15.4988 0.482938 15.4044 0.390657C15.31 0.298376 15.1832 0.246745 15.0512 0.246779L15.0533 0.248877ZM17.4491 15.4394C17.3953 15.4835 17.3521 15.5391 17.3226 15.602C17.293 15.6648 17.2779 15.7335 17.2782 15.803C17.2807 15.9237 17.3274 16.0394 17.4095 16.128C17.4582 16.1808 17.5173 16.223 17.5831 16.2519C17.6489 16.2807 17.7199 16.2956 17.7918 16.2957C17.9162 16.2948 18.0354 16.2454 18.1241 16.1582C18.1757 16.1129 18.2169 16.057 18.2448 15.9942C18.2727 15.9315 18.2866 15.8633 18.2855 15.7947C18.2866 15.7344 18.2756 15.6746 18.253 15.6188C18.2305 15.563 18.1969 15.5123 18.1543 15.4697C18.1103 15.4204 18.0569 15.3803 17.9972 15.352C17.9375 15.3236 17.8727 15.3075 17.8067 15.3046C17.7407 15.3017 17.6748 15.312 17.6128 15.335C17.5508 15.358 17.4941 15.3932 17.446 15.4384L17.4491 15.4394Z" fill="#000000"/>
</svg>
