<svg width="38" height="20" viewBox="0 0 38 20" fill="none" xmlns="http://www.w3.org/2000/svg">
<path fill-rule="evenodd" clip-rule="evenodd" d="M23.151 13.1669L27.0568 6.85332H29.233L30.4103 13.1677H28.3947L28.2251 11.8995H25.6478L24.9342 13.1677H23.1511H23.1505H21.2157C21.2038 12.9333 21.2365 12.4558 21.3138 11.7351C21.3376 11.4831 21.3495 11.3102 21.3495 11.2165C21.3495 11.0231 21.3004 10.8869 21.2024 10.8078C21.1042 10.7287 20.9125 10.6892 20.6271 10.6892H19.878L19.3428 13.1677H17.5502L18.9148 6.82196H21.8935C22.4049 6.82196 22.7438 6.83368 22.9103 6.85713C23.3146 6.91569 23.6029 7.0563 23.7753 7.279C23.9359 7.47826 24.0162 7.72726 24.0162 8.02606C24.0162 8.17841 23.9983 8.33951 23.9626 8.50943C23.8437 9.05435 23.5613 9.44694 23.1154 9.6872C22.8241 9.84545 22.4732 9.95384 22.063 10.0124L22.0541 10.0476C22.5178 10.0593 22.833 10.1501 22.9995 10.32C23.1422 10.4606 23.2135 10.6979 23.2135 11.0319C23.2135 11.1433 23.2045 11.3337 23.1868 11.6032C23.1333 12.3877 23.1214 12.9088 23.151 13.1669H23.151ZM10.022 20H21.7125L22.1475 17.8373H10.457L10.022 20ZM10.7362 16.6438H22.4267L22.8617 14.4811H11.1712L10.7362 16.6438ZM13.0753 5.51894H24.7657L25.2008 3.35612H13.5103L13.0753 5.51894ZM13.7895 2.16273H25.4799L25.915 0H14.2245L13.7895 2.16273ZM30.8031 13.1677L32.1676 6.82398H37.0015L36.7428 8.03989H33.6748L33.3895 9.36145H36.2791L36.0115 10.5774H33.1219L32.8365 11.9342H35.9758L35.7083 13.1677H30.8031ZM5.85951 13.1677L7.22403 6.82398H12.0578L11.7992 8.03989H8.73117L8.44582 9.36145H11.3354L11.0679 10.5774H8.17825L7.89287 11.9342H11.0322L10.7646 13.1677H5.85951ZM0.0614964 11.0998H1.82745C1.804 11.2119 1.79228 11.3044 1.79228 11.3772C1.79228 11.82 2.09099 12.0412 2.6884 12.0412C3.31512 12.0412 3.68122 11.8115 3.7866 11.352C3.79832 11.296 3.80413 11.2427 3.80413 11.1922C3.80413 10.9849 3.65777 10.8421 3.36489 10.7635L1.89771 10.377C1.06601 10.1584 0.650138 9.73525 0.650138 9.10763C0.650138 8.98431 0.664738 8.85271 0.694076 8.71254C0.817096 8.17461 1.12458 7.73465 1.61655 7.39282C2.17298 7.00614 2.89637 6.81281 3.7866 6.81281C5.27435 6.81281 6.01823 7.27232 6.01823 8.19137C6.01823 8.34271 5.99478 8.52767 5.94794 8.74616H4.16443C4.19371 8.63412 4.20831 8.53885 4.20831 8.46034C4.20831 8.09051 3.97994 7.90561 3.52306 7.90561C3.27115 7.90561 3.05445 7.96579 2.87292 8.08632C2.69136 8.20682 2.58297 8.35948 2.54788 8.54444C2.53615 8.59492 2.53023 8.6425 2.53023 8.6874C2.53023 8.91709 2.70308 9.07679 3.04861 9.16647L4.16443 9.46069C4.65059 9.58958 4.99024 9.71849 5.18349 9.84737C5.51157 10.0603 5.67555 10.3685 5.67555 10.772C5.67555 10.9065 5.65801 11.0522 5.62284 11.2091C5.48229 11.8592 5.10443 12.3551 4.48947 12.6969C3.92721 13.0108 3.2273 13.1677 2.38971 13.1677C1.30611 13.1677 0.591518 12.9267 0.245987 12.4448C0.081987 12.2206 0 11.946 0 11.621C0 11.4865 0.0204902 11.3128 0.0614964 11.0998ZM11.4546 13.1677L12.8132 6.80341H16.2973C16.4084 6.81239 16.5036 6.82366 16.5828 6.8371C16.993 6.91383 17.3051 7.06726 17.5192 7.29746C17.7154 7.51 17.8135 7.7667 17.8135 8.06775C17.8135 8.17398 17.8016 8.28322 17.7779 8.39536C17.6173 9.13316 17.0555 9.61724 16.0923 9.84745L16.0833 9.86517C16.9217 10.0186 17.3409 10.4141 17.3409 11.0516C17.3409 11.4529 17.2279 11.8174 17.0019 12.1451C16.776 12.4727 16.4742 12.725 16.0967 12.9021C15.7192 13.0791 15.1202 13.1677 14.2996 13.1677H11.4546ZM14.3085 7.93497L14.0053 9.35159H14.8437C15.1588 9.35159 15.3729 9.32504 15.4858 9.27193C15.7355 9.14801 15.8901 8.94138 15.9496 8.65214C16.0031 8.40421 15.9614 8.21537 15.8247 8.08544C15.7177 7.98513 15.5364 7.93497 15.2807 7.93497H14.3085ZM13.7645 10.485L13.4435 11.999H14.4334C15.0458 11.999 15.4055 11.751 15.5125 11.2552C15.5304 11.1785 15.5393 11.1076 15.5393 11.0427C15.5393 10.6708 15.2599 10.485 14.7009 10.485H13.7645ZM26.3166 10.7364H28.0647L27.806 8.08646H27.7793L26.3166 10.7364ZM20.4577 7.99088L20.1277 9.54657H20.7966C21.1771 9.54657 21.4268 9.52901 21.5457 9.49384C21.8846 9.39421 22.0928 9.15398 22.17 8.77311C22.1878 8.69112 22.1968 8.6179 22.1968 8.55345C22.1968 8.3073 22.0779 8.14321 21.84 8.06123C21.6974 8.01433 21.4595 7.99088 21.1266 7.99088H20.4577Z" fill="#005EB8"/>
</svg>
