<svg width="156" height="92" viewBox="0 0 156 92" fill="none" xmlns="http://www.w3.org/2000/svg">
<path d="M21.3381 64.6497H11.316L9.69268 73.472H0.799805L11.9512 17.7857H20.7029L31.8543 73.472H22.8908L21.3381 64.6497ZM19.7854 55.898L16.327 35.9949L12.7981 55.9686H19.7854V55.898Z" fill="url(#paint0_linear_7010_7396)"/>
<path d="M48.0166 74.1778C44.2054 74.1778 41.1 73.1192 38.7709 70.9312C36.0889 68.3904 34.8185 64.9321 34.8185 60.4856V53.2161H43.5702V60.4856C43.5702 62.3913 43.9937 63.7323 44.77 64.438C45.4758 65.0732 46.5345 65.4261 48.0166 65.4261C49.5694 65.4261 50.628 65.1438 51.2632 64.438C52.0396 63.7323 52.4631 62.3913 52.4631 60.4856V56.9567C52.4631 54.4865 51.475 52.3691 49.4988 50.6047C49.0753 50.2518 47.9461 49.546 46.1816 48.5579C43.7114 47.2169 41.8763 46.0877 40.6765 45.029C38.7709 43.3351 37.2887 41.4295 36.3006 39.2416C35.3125 37.0536 34.8185 34.7245 34.8185 32.2543V30.9133C34.8185 26.5375 36.1595 23.0085 38.7709 20.4677C41.1 18.2798 44.2054 17.2211 48.0166 17.2211C51.8279 17.2211 54.9333 18.2798 57.2624 20.4677C59.9444 23.0085 61.2148 26.4669 61.2148 30.9133V35.7832H52.4631V30.9133C52.4631 28.9371 52.0396 27.5961 51.2632 26.9609C50.628 26.3257 49.5694 25.9728 48.0166 25.9728C46.5345 25.9728 45.4758 26.3257 44.77 26.9609C43.9937 27.7373 43.5702 29.0077 43.5702 30.9133V32.2543C43.5702 34.7245 44.5583 36.7713 46.5345 38.5358C47.0991 38.9592 48.0872 39.5945 49.6399 40.4414C52.3925 41.9235 54.2981 43.1234 55.3568 44.1115C59.3092 47.6404 61.2148 51.8751 61.2148 57.0273V60.5562C61.2148 64.9321 59.8738 68.461 57.2624 71.0018C54.9333 73.0486 51.8279 74.1778 48.0166 74.1778Z" fill="url(#paint1_linear_7010_7396)"/>
<path d="M93.187 73.4721H88.1054L74.7661 45.2407V73.4721H66.0144V17.8563H71.096L84.4353 46.0171V17.8563H93.187V73.4721Z" fill="url(#paint2_linear_7010_7396)"/>
<path d="M104.548 27.596H101.09L100.384 30.8426H99.6786L102.431 18.4208H103.066L105.819 30.8426H105.113L104.548 27.596ZM104.337 26.9608L102.784 19.8324L101.231 26.9608H104.337Z" fill="url(#paint3_linear_7010_7396)"/>
<path d="M109.207 31.0543C108.43 31.0543 107.866 30.8426 107.442 30.4191C106.948 29.9251 106.666 29.2899 106.666 28.3723V20.9616C106.666 20.0441 106.948 19.4089 107.442 18.9148C107.866 18.4914 108.501 18.2796 109.207 18.2796C109.983 18.2796 110.548 18.4914 110.971 18.9148C111.465 19.4089 111.748 20.0441 111.748 20.9616V22.1614H111.112V20.9616C111.112 20.2558 110.901 19.7618 110.548 19.4089C110.195 19.1266 109.771 18.9854 109.207 18.9854C108.642 18.9854 108.219 19.1266 107.866 19.4089C107.513 19.7618 107.301 20.2558 107.301 20.9616V28.3723C107.301 29.0781 107.513 29.5722 107.866 29.9251C108.148 30.2074 108.642 30.3485 109.207 30.3485C109.771 30.3485 110.265 30.2074 110.548 29.9251C110.901 29.5722 111.112 29.0781 111.112 28.3723V24.9846H109.207V24.3494H111.748V28.3723C111.748 29.2899 111.465 29.9251 110.971 30.4191C110.618 30.8426 109.983 31.0543 109.207 31.0543Z" fill="url(#paint4_linear_7010_7396)"/>
<path d="M113.724 24.2082H116.406V24.8434H113.724V30.2074H117.535V30.8426H113.089V18.4208H117.535V19.056H113.724V24.2082ZM115.771 16.0211L116.971 17.7856H116.476L115.347 16.5152L114.218 17.7856H113.724L114.924 16.0211H115.771Z" fill="url(#paint5_linear_7010_7396)"/>
<path d="M124.099 30.8426H123.746L119.512 20.7499V30.8426H118.876V18.4208H119.229L123.464 28.5135V18.4208H124.099V30.8426Z" fill="url(#paint6_linear_7010_7396)"/>
<path d="M128.05 31.0543C127.274 31.0543 126.709 30.8426 126.285 30.4191C125.791 29.9251 125.509 29.2899 125.509 28.3723V20.9616C125.509 20.0441 125.791 19.4089 126.285 18.9148C126.709 18.4914 127.344 18.2796 128.05 18.2796C128.826 18.2796 129.391 18.4914 129.814 18.9148C130.308 19.4089 130.591 20.0441 130.591 20.9616V22.1614H129.956V20.9616C129.956 20.2558 129.744 19.7618 129.391 19.4089C129.109 19.1266 128.615 18.9854 128.05 18.9854C127.485 18.9854 126.991 19.1266 126.709 19.4089C126.356 19.7618 126.144 20.2558 126.144 20.9616V28.3723C126.144 29.0781 126.356 29.5722 126.709 29.9251C126.991 30.2074 127.485 30.3485 128.05 30.3485C128.615 30.3485 129.109 30.2074 129.391 29.9251C129.744 29.5722 129.956 29.0781 129.956 28.3723V26.6079H130.591V28.3723C130.591 29.2899 130.308 29.9251 129.814 30.4191C129.391 30.8426 128.826 31.0543 128.05 31.0543Z" fill="url(#paint7_linear_7010_7396)"/>
<path d="M132.64 30.8426H132.004V18.4208H132.64V30.8426Z" fill="url(#paint8_linear_7010_7396)"/>
<path d="M138.567 27.596H135.109L134.403 30.8426H133.697L136.45 18.4208H137.085L139.838 30.8426H139.132L138.567 27.596ZM138.355 26.9608L136.803 19.8324L135.25 26.9608H138.355Z" fill="url(#paint9_linear_7010_7396)"/>
<path d="M102.784 52.2984C101.937 52.2984 101.232 52.0867 100.737 51.5927C100.173 51.028 99.82 50.2517 99.82 49.2636V47.6403H101.796V49.2636C101.796 49.687 101.867 49.9694 102.078 50.1811C102.22 50.3223 102.502 50.3928 102.784 50.3928C103.137 50.3928 103.349 50.3223 103.49 50.1811C103.702 50.0399 103.772 49.7576 103.772 49.2636V48.4872C103.772 47.9226 103.561 47.4991 103.137 47.0756C103.067 47.0051 102.784 46.8639 102.361 46.5816C101.796 46.2993 101.373 46.017 101.161 45.8052C100.737 45.4523 100.385 45.0289 100.173 44.5348C99.9611 44.0408 99.82 43.5467 99.82 42.9821V42.6998C99.82 41.7117 100.102 40.9353 100.737 40.3707C101.232 39.8767 101.937 39.6649 102.784 39.6649C103.631 39.6649 104.337 39.8767 104.831 40.3707C105.396 40.9353 105.749 41.7117 105.749 42.6998V43.7585H103.772V42.6998C103.772 42.2763 103.702 41.994 103.49 41.7823C103.349 41.6411 103.137 41.5705 102.784 41.5705C102.431 41.5705 102.22 41.6411 102.078 41.7823C101.867 41.9234 101.796 42.2763 101.796 42.6998V42.9821C101.796 43.5467 102.008 43.9702 102.431 44.3937C102.573 44.4642 102.784 44.6054 103.137 44.8171C103.772 45.17 104.196 45.4523 104.408 45.6641C105.254 46.4404 105.749 47.4285 105.749 48.5578V49.3342C105.749 50.3223 105.466 51.0986 104.831 51.6632C104.337 52.0867 103.631 52.2984 102.784 52.2984Z" fill="url(#paint10_linear_7010_7396)"/>
<path d="M108.854 41.7117V44.8171H111.042V46.7933H108.854V50.2516H112.03V52.2278H106.877V39.7355H112.03V41.7117H108.854Z" fill="url(#paint11_linear_7010_7396)"/>
<path d="M116.194 52.1573H113.23V39.7355H115.912C116.759 39.7355 117.464 39.9472 117.958 40.4412C118.241 40.7236 118.523 41.0765 118.664 41.4293C118.805 41.7822 118.876 42.2763 118.876 42.7703V43.8996C118.876 44.7465 118.664 45.3817 118.17 45.8052C118.805 46.2993 119.158 47.005 119.158 48.0637V49.193C119.158 49.687 119.088 50.1105 118.947 50.4634C118.805 50.8868 118.594 51.1692 118.241 51.4515C117.676 51.9455 117.041 52.1573 116.194 52.1573ZM115.912 44.9583C116.265 44.9583 116.476 44.8877 116.617 44.7465C116.829 44.5348 116.9 44.2525 116.9 43.829V42.6998C116.9 42.2763 116.829 41.994 116.617 41.8528C116.476 41.7117 116.194 41.6411 115.841 41.6411H115.135V44.9583H115.912ZM115.206 50.1811H116.194C116.547 50.1811 116.829 50.1105 116.97 49.9693C117.112 49.8282 117.253 49.5459 117.253 49.1224V47.9931C117.253 47.5697 117.182 47.2873 116.97 47.0756C116.829 46.9345 116.547 46.8639 116.265 46.8639H115.276V50.1811H115.206Z" fill="url(#paint12_linear_7010_7396)"/>
<path d="M126.145 52.1573H124.169L123.181 47.1462H122.263V52.1573H120.287V39.7355H123.251C124.098 39.7355 124.804 40.0178 125.298 40.5118C125.863 41.0765 126.216 41.8528 126.216 42.8409V44.1819C126.216 45.17 125.933 45.9464 125.298 46.511C125.228 46.5816 125.086 46.6521 125.016 46.7227L126.145 52.1573ZM124.24 42.7703C124.24 42.3469 124.169 42.0645 123.957 41.8528C123.816 41.7117 123.534 41.6411 123.251 41.6411H122.263V45.17H123.251C123.604 45.17 123.816 45.0994 123.957 44.9583C124.169 44.8171 124.24 44.4642 124.24 44.0407V42.7703Z" fill="url(#paint13_linear_7010_7396)"/>
<path d="M131.438 50.1811H129.25L128.897 52.1573H126.921L129.391 39.7355H131.368L133.838 52.1573H131.862L131.438 50.1811ZM131.156 48.2049L130.38 43.7584L129.603 48.2049H131.156Z" fill="url(#paint14_linear_7010_7396)"/>
<path d="M136.733 41.7117V44.8171H138.921V46.7933H136.733V50.2516H139.909V52.2278H134.757V39.7355H139.909V41.7117H136.733Z" fill="url(#paint15_linear_7010_7396)"/>
<path d="M102.642 73.4719H100.101V61.0502H102.642C103.418 61.0502 103.983 61.2619 104.406 61.6854C104.9 62.1794 105.183 62.8146 105.183 63.7321V70.9311C105.183 71.8486 104.9 72.4838 104.406 72.9779C103.983 73.2602 103.418 73.4719 102.642 73.4719ZM100.807 72.7662H102.712C103.983 72.7662 104.618 72.131 104.618 70.8605V63.6616C104.618 62.9558 104.406 62.4617 104.053 62.1088C103.7 61.8265 103.277 61.6854 102.712 61.6854H100.807V72.7662Z" fill="url(#paint16_linear_7010_7396)"/>
<path d="M107.089 61.6854V66.767H109.771V67.4022H107.089V72.7662H110.9V73.4014H106.454V61.0502H110.9V61.6854H107.089Z" fill="url(#paint17_linear_7010_7396)"/>
<path d="M120.146 73.4719H119.793L115.558 63.3792V73.4719H114.923V61.0502H115.276L119.511 71.1429V61.0502H120.146V73.4719Z" fill="url(#paint18_linear_7010_7396)"/>
<path d="M124.097 73.6131C123.321 73.6131 122.756 73.4014 122.333 72.9779C121.839 72.4839 121.557 71.8486 121.557 70.9311V63.5204C121.557 62.6029 121.839 61.9677 122.333 61.4736C122.756 61.0502 123.392 60.8384 124.097 60.8384C124.874 60.8384 125.438 61.0502 125.862 61.4736C126.356 61.9677 126.638 62.6029 126.638 63.5204V70.9311C126.638 71.8486 126.356 72.4839 125.862 72.9779C125.438 73.4014 124.874 73.6131 124.097 73.6131ZM124.097 61.5442C123.533 61.5442 123.109 61.6854 122.756 61.9677C122.404 62.3206 122.192 62.8146 122.192 63.5204V70.9311C122.192 71.6369 122.404 72.131 122.756 72.4839C123.039 72.7662 123.533 72.9073 124.097 72.9073C124.662 72.9073 125.156 72.7662 125.438 72.4839C125.791 72.131 126.003 71.6369 126.003 70.9311V63.5204C126.003 62.8146 125.791 62.3206 125.438 61.9677C125.156 61.6854 124.662 61.5442 124.097 61.5442Z" fill="url(#paint19_linear_7010_7396)"/>
<path d="M130.38 61.6854V73.4719H129.745V61.6854H127.416V61.0502H132.78V61.6854H130.38Z" fill="url(#paint20_linear_7010_7396)"/>
<path d="M134.332 73.472H133.697V61.0502H134.332V73.472ZM134.968 58.6506L133.768 60.415H134.262L135.815 58.6506H134.968Z" fill="url(#paint21_linear_7010_7396)"/>
<path d="M138.285 73.6131C137.509 73.6131 136.944 73.4014 136.521 72.9779C136.027 72.4839 135.744 71.8486 135.744 70.9311V63.5204C135.744 62.6029 136.027 61.9677 136.521 61.4736C136.944 61.0502 137.579 60.8384 138.285 60.8384C139.061 60.8384 139.626 61.0502 140.049 61.4736C140.544 61.9677 140.826 62.6029 140.826 63.5204V64.7202H140.191V63.5204C140.191 62.8146 139.979 62.3206 139.626 61.9677C139.344 61.6854 138.85 61.5442 138.285 61.5442C137.72 61.5442 137.226 61.6854 136.944 61.9677C136.591 62.3206 136.379 62.8146 136.379 63.5204V70.9311C136.379 71.6369 136.591 72.131 136.944 72.4839C137.226 72.7662 137.72 72.9073 138.285 72.9073C138.85 72.9073 139.344 72.7662 139.626 72.4839C139.979 72.131 140.191 71.6369 140.191 70.9311V69.1667H140.826V70.9311C140.826 71.8486 140.544 72.4839 140.049 72.9779C139.626 73.4014 139.061 73.6131 138.285 73.6131Z" fill="url(#paint22_linear_7010_7396)"/>
<path d="M142.873 73.4719H142.238V61.0502H142.873V73.4719Z" fill="url(#paint23_linear_7010_7396)"/>
<path d="M148.801 70.1548H145.342L144.637 73.4014H143.931L146.683 60.9796H147.319L150.071 73.4014H149.365L148.801 70.1548ZM148.589 69.5196L147.036 62.3912L145.484 69.5196H148.589Z" fill="url(#paint24_linear_7010_7396)"/>
<path d="M153.53 73.6131C152.753 73.6131 152.189 73.4014 151.765 72.9779C151.271 72.4839 150.989 71.8486 150.989 70.9311V69.1667H151.624V71.0017C151.624 71.7075 151.836 72.2015 152.189 72.5544C152.471 72.8367 152.965 72.9779 153.53 72.9779C154.094 72.9779 154.518 72.8367 154.871 72.5544C155.224 72.2015 155.435 71.7075 155.435 71.0017V70.1548C155.435 69.3078 155.224 68.6726 154.73 68.2492C154.306 67.8257 153.812 67.5434 153.389 67.3316C152.824 67.1199 152.33 66.767 151.765 66.273C151.201 65.7789 150.918 65.0025 150.918 63.9439V63.5204C150.918 62.6029 151.201 61.9677 151.695 61.4736C152.118 61.0502 152.753 60.8384 153.459 60.8384C154.235 60.8384 154.8 61.0502 155.224 61.4736C155.718 61.9677 156 62.6029 156 63.5204V64.7202H155.365V63.5204C155.365 62.8146 155.153 62.3206 154.8 61.9677C154.518 61.6854 154.094 61.5442 153.459 61.5442C152.824 61.5442 152.4 61.6854 152.118 61.9677C151.765 62.3206 151.553 62.8146 151.553 63.5204V63.8733C151.553 64.5085 151.695 65.0025 151.977 65.3554C152.259 65.7789 152.542 65.9906 152.753 66.2024C153.036 66.3435 153.318 66.4847 153.6 66.6259C155.224 67.3316 156 68.4609 156 70.0842V70.9311C156 71.8486 155.718 72.4839 155.224 72.9779C154.871 73.4014 154.306 73.6131 153.53 73.6131Z" fill="url(#paint25_linear_7010_7396)"/>
<path d="M19.6443 12.8453C23.5261 8.61056 28.9606 6.2109 34.8186 6.2109C40.6766 6.2109 46.1111 8.68114 49.993 12.8453H57.6154C52.7455 4.79933 44.2055 0 34.8186 0C25.4317 0 16.8917 4.79933 12.0218 12.8453H19.6443Z" fill="url(#paint26_linear_7010_7396)"/>
<path d="M85.5635 79.1184C81.6817 83.3531 76.2472 85.7527 70.3892 85.7527C64.5312 85.7527 59.0966 83.2825 55.2148 79.1184H47.5924C52.4623 87.1643 61.0022 91.9636 70.3892 91.9636C79.7761 91.9636 88.3161 87.1643 93.186 79.1184H85.5635Z" fill="url(#paint27_linear_7010_7396)"/>
<defs>
<linearGradient id="paint0_linear_7010_7396" x1="0.799805" y1="46.5639" x2="154.127" y2="46.5639" gradientUnits="userSpaceOnUse">
<stop stop-color="#A61AFF"/>
<stop offset="1" stop-color="#0043C9"/>
</linearGradient>
<linearGradient id="paint1_linear_7010_7396" x1="0.799805" y1="46.5639" x2="154.127" y2="46.5639" gradientUnits="userSpaceOnUse">
<stop stop-color="#A61AFF"/>
<stop offset="1" stop-color="#0043C9"/>
</linearGradient>
<linearGradient id="paint2_linear_7010_7396" x1="0.799805" y1="46.5639" x2="154.127" y2="46.5639" gradientUnits="userSpaceOnUse">
<stop stop-color="#A61AFF"/>
<stop offset="1" stop-color="#0043C9"/>
</linearGradient>
<linearGradient id="paint3_linear_7010_7396" x1="0.799805" y1="46.5639" x2="154.127" y2="46.5639" gradientUnits="userSpaceOnUse">
<stop stop-color="#A61AFF"/>
<stop offset="1" stop-color="#0043C9"/>
</linearGradient>
<linearGradient id="paint4_linear_7010_7396" x1="0.799805" y1="46.5639" x2="154.127" y2="46.5639" gradientUnits="userSpaceOnUse">
<stop stop-color="#A61AFF"/>
<stop offset="1" stop-color="#0043C9"/>
</linearGradient>
<linearGradient id="paint5_linear_7010_7396" x1="0.799805" y1="46.5639" x2="154.127" y2="46.5639" gradientUnits="userSpaceOnUse">
<stop stop-color="#A61AFF"/>
<stop offset="1" stop-color="#0043C9"/>
</linearGradient>
<linearGradient id="paint6_linear_7010_7396" x1="0.799805" y1="46.5639" x2="154.127" y2="46.5639" gradientUnits="userSpaceOnUse">
<stop stop-color="#A61AFF"/>
<stop offset="1" stop-color="#0043C9"/>
</linearGradient>
<linearGradient id="paint7_linear_7010_7396" x1="0.799805" y1="46.5639" x2="154.127" y2="46.5639" gradientUnits="userSpaceOnUse">
<stop stop-color="#A61AFF"/>
<stop offset="1" stop-color="#0043C9"/>
</linearGradient>
<linearGradient id="paint8_linear_7010_7396" x1="0.799805" y1="46.5639" x2="154.127" y2="46.5639" gradientUnits="userSpaceOnUse">
<stop stop-color="#A61AFF"/>
<stop offset="1" stop-color="#0043C9"/>
</linearGradient>
<linearGradient id="paint9_linear_7010_7396" x1="0.799805" y1="46.5639" x2="154.127" y2="46.5639" gradientUnits="userSpaceOnUse">
<stop stop-color="#A61AFF"/>
<stop offset="1" stop-color="#0043C9"/>
</linearGradient>
<linearGradient id="paint10_linear_7010_7396" x1="0.799805" y1="46.5639" x2="154.127" y2="46.5639" gradientUnits="userSpaceOnUse">
<stop stop-color="#A61AFF"/>
<stop offset="1" stop-color="#0043C9"/>
</linearGradient>
<linearGradient id="paint11_linear_7010_7396" x1="0.799805" y1="46.5639" x2="154.127" y2="46.5639" gradientUnits="userSpaceOnUse">
<stop stop-color="#A61AFF"/>
<stop offset="1" stop-color="#0043C9"/>
</linearGradient>
<linearGradient id="paint12_linear_7010_7396" x1="0.799805" y1="46.5639" x2="154.127" y2="46.5639" gradientUnits="userSpaceOnUse">
<stop stop-color="#A61AFF"/>
<stop offset="1" stop-color="#0043C9"/>
</linearGradient>
<linearGradient id="paint13_linear_7010_7396" x1="0.799805" y1="46.5639" x2="154.127" y2="46.5639" gradientUnits="userSpaceOnUse">
<stop stop-color="#A61AFF"/>
<stop offset="1" stop-color="#0043C9"/>
</linearGradient>
<linearGradient id="paint14_linear_7010_7396" x1="0.799805" y1="46.5639" x2="154.127" y2="46.5639" gradientUnits="userSpaceOnUse">
<stop stop-color="#A61AFF"/>
<stop offset="1" stop-color="#0043C9"/>
</linearGradient>
<linearGradient id="paint15_linear_7010_7396" x1="0.799805" y1="46.5639" x2="154.127" y2="46.5639" gradientUnits="userSpaceOnUse">
<stop stop-color="#A61AFF"/>
<stop offset="1" stop-color="#0043C9"/>
</linearGradient>
<linearGradient id="paint16_linear_7010_7396" x1="0.799805" y1="46.5639" x2="154.127" y2="46.5639" gradientUnits="userSpaceOnUse">
<stop stop-color="#A61AFF"/>
<stop offset="1" stop-color="#0043C9"/>
</linearGradient>
<linearGradient id="paint17_linear_7010_7396" x1="0.799805" y1="46.5639" x2="154.127" y2="46.5639" gradientUnits="userSpaceOnUse">
<stop stop-color="#A61AFF"/>
<stop offset="1" stop-color="#0043C9"/>
</linearGradient>
<linearGradient id="paint18_linear_7010_7396" x1="0.799805" y1="46.5639" x2="154.127" y2="46.5639" gradientUnits="userSpaceOnUse">
<stop stop-color="#A61AFF"/>
<stop offset="1" stop-color="#0043C9"/>
</linearGradient>
<linearGradient id="paint19_linear_7010_7396" x1="0.799805" y1="46.5639" x2="154.127" y2="46.5639" gradientUnits="userSpaceOnUse">
<stop stop-color="#A61AFF"/>
<stop offset="1" stop-color="#0043C9"/>
</linearGradient>
<linearGradient id="paint20_linear_7010_7396" x1="0.799805" y1="46.5639" x2="154.127" y2="46.5639" gradientUnits="userSpaceOnUse">
<stop stop-color="#A61AFF"/>
<stop offset="1" stop-color="#0043C9"/>
</linearGradient>
<linearGradient id="paint21_linear_7010_7396" x1="0.799805" y1="46.5639" x2="154.127" y2="46.5639" gradientUnits="userSpaceOnUse">
<stop stop-color="#A61AFF"/>
<stop offset="1" stop-color="#0043C9"/>
</linearGradient>
<linearGradient id="paint22_linear_7010_7396" x1="0.799805" y1="46.5639" x2="154.127" y2="46.5639" gradientUnits="userSpaceOnUse">
<stop stop-color="#A61AFF"/>
<stop offset="1" stop-color="#0043C9"/>
</linearGradient>
<linearGradient id="paint23_linear_7010_7396" x1="0.799805" y1="46.5639" x2="154.127" y2="46.5639" gradientUnits="userSpaceOnUse">
<stop stop-color="#A61AFF"/>
<stop offset="1" stop-color="#0043C9"/>
</linearGradient>
<linearGradient id="paint24_linear_7010_7396" x1="0.799805" y1="46.5639" x2="154.127" y2="46.5639" gradientUnits="userSpaceOnUse">
<stop stop-color="#A61AFF"/>
<stop offset="1" stop-color="#0043C9"/>
</linearGradient>
<linearGradient id="paint25_linear_7010_7396" x1="0.799805" y1="46.5639" x2="154.127" y2="46.5639" gradientUnits="userSpaceOnUse">
<stop stop-color="#A61AFF"/>
<stop offset="1" stop-color="#0043C9"/>
</linearGradient>
<linearGradient id="paint26_linear_7010_7396" x1="0.799805" y1="46.5639" x2="154.127" y2="46.5639" gradientUnits="userSpaceOnUse">
<stop stop-color="#A61AFF"/>
<stop offset="1" stop-color="#0043C9"/>
</linearGradient>
<linearGradient id="paint27_linear_7010_7396" x1="0.799805" y1="46.5639" x2="154.127" y2="46.5639" gradientUnits="userSpaceOnUse">
<stop stop-color="#A61AFF"/>
<stop offset="1" stop-color="#0043C9"/>
</linearGradient>
</defs>
</svg>
