<svg width="96" height="96" viewBox="0 0 96 96" fill="none" xmlns="http://www.w3.org/2000/svg">
<path fill-rule="evenodd" clip-rule="evenodd" d="M19.5797 13.3476C23.6133 8.94727 29.2604 6.45377 35.3474 6.45377C41.4345 6.45377 47.0815 9.02061 51.1152 13.3476H59.0357C53.9753 4.987 45.1014 0 35.3474 0C25.5934 0 16.7195 4.987 11.6592 13.3476H19.5797ZM49.0619 77.0785C45.1016 77.0785 41.8748 75.9784 39.4546 73.7049C36.6677 71.0648 35.3477 67.4712 35.3477 62.8509V55.297H44.4416V62.8509C44.4416 64.831 44.8816 66.2244 45.6884 66.9578C46.4217 67.6179 47.5218 67.9846 49.0619 67.9846C50.6754 67.9846 51.7754 67.6912 52.4355 66.9578C53.2422 66.2244 53.6822 64.831 53.6822 62.8509V59.184C53.6822 56.6171 52.6555 54.417 50.602 52.5835C50.162 52.2168 48.9886 51.4835 47.1551 50.4567C44.5883 49.0633 42.6815 47.8899 41.4347 46.7898C39.4546 45.0297 37.9145 43.0496 36.8878 40.7761C35.861 38.5026 35.3477 36.0824 35.3477 33.5156V32.1222C35.3477 27.5752 36.7411 23.9083 39.4546 21.2681C41.8748 18.9946 45.1016 17.8945 49.0619 17.8945C53.0222 17.8945 56.2491 18.9946 58.6692 21.2681C61.4561 23.9083 62.7762 27.5018 62.7762 32.1222V37.1825H53.6822V32.1222C53.6822 30.0687 53.2422 28.6753 52.4355 28.0152C51.7754 27.3552 50.6754 26.9885 49.0619 26.9885C47.5218 26.9885 46.4217 27.3552 45.6884 28.0152C44.8816 28.8219 44.4416 30.142 44.4416 32.1222V33.5156C44.4416 36.0824 45.4683 38.2092 47.5218 40.0427C48.1085 40.4827 49.1352 41.1428 50.7487 42.0228C53.6089 43.5629 55.589 44.8097 56.6891 45.8364C60.796 49.5033 62.7762 53.9036 62.7762 59.2573V62.9242C62.7762 67.4712 61.3827 71.1381 58.6692 73.7783C56.2491 75.9051 53.0222 77.0785 49.0619 77.0785ZM10.9274 67.1771L9.24062 76.3444H0L11.5874 18.4805H20.6814L32.2688 76.3444H22.9549L21.3414 67.1771H10.9274ZM19.728 58.0831L16.1344 37.4017L12.4675 58.1565H19.728V58.0831ZM90.72 76.3452H96.0004V18.5547H86.9064V47.8167L73.0455 18.5547H67.7651V76.3452H76.8591V47.0099L90.72 76.3452ZM72.3108 89.1047C78.3979 89.1047 84.0449 86.6112 88.0785 82.2109H95.9991C90.9387 90.5715 82.0648 95.5585 72.3108 95.5585C62.5568 95.5585 53.6829 90.5715 48.6226 82.2109H56.5431C60.5767 86.5379 66.2237 89.1047 72.3108 89.1047Z" fill="url(#paint0_linear_8046_199309)"/>
<defs>
<linearGradient id="paint0_linear_8046_199309" x1="96.0004" y1="0" x2="-12.0018" y2="16.3684" gradientUnits="userSpaceOnUse">
<stop stop-color="#3B53FF"/>
<stop offset="1" stop-color="#8A7FFA"/>
</linearGradient>
</defs>
</svg>
