<svg width="396" height="54" viewBox="0 0 396 54" fill="none" xmlns="http://www.w3.org/2000/svg">
<path d="M80.1202 8.45566C81.7354 9.85181 83.3292 11.7244 83.1366 13.8851C82.9976 15.4253 81.9814 16.6996 81.0722 17.9406C79.1361 20.5667 77.553 23.4144 76.0555 26.3397C76.8364 22.5058 75.9806 18.3285 74.7505 14.5389C73.6381 11.1482 72.2475 7.8573 70.5896 4.71042C70.0654 3.72425 68.4609 2.07324 68.4609 2.07324C72.7075 3.44723 76.708 5.51931 80.1309 8.45566H80.1202Z" fill="#EE7274"/>
<path d="M74.7401 14.5385C75.9809 18.317 76.8367 22.5054 76.0451 26.3393C74.6653 29.0651 73.3603 31.8353 71.9697 34.55C69.071 40.1679 65.5411 45.6971 60.3747 49.1653C53.5931 53.7194 44.7684 54.074 36.9813 51.8357C32.3711 50.5061 28.0604 48.3564 23.9315 45.819C18.3052 40.8549 14.8609 33.2093 13.2243 25.7742C12.6574 23.2035 12.3579 20.522 12.8713 17.9402C13.3847 15.3585 14.6576 12.4554 16.8397 11.1146C19.1074 10.4387 21.3858 9.8071 23.5465 8.88741C25.536 8.0342 27.4186 6.94831 29.3547 5.96214C37.5803 1.80692 46.7794 -0.242991 55.9142 0.0229434C60.1287 0.14483 64.3966 0.798587 68.4292 2.09502C68.4292 2.09502 70.0337 3.74602 70.5578 4.73219C72.2265 7.87908 73.617 11.17 74.7294 14.5607L74.7401 14.5385Z" fill="#3C342D"/>
<path d="M13.2241 25.7639C14.8714 33.199 18.3157 40.8557 23.9314 45.7976C21.0861 44.058 18.3371 42.13 15.6416 40.1576C10.4537 36.357 5.30868 32.2904 1.63976 26.9274C0.61289 25.4315 -0.00751507 23.5257 1.15841 22.1517C3.07309 18.484 6.31416 15.6695 9.88681 13.7415C12.0903 12.5559 14.4542 11.8024 16.8503 11.0933C14.6682 12.434 13.3846 15.3371 12.8818 17.9189C12.3791 20.5118 12.6572 23.1933 13.2348 25.7639H13.2241Z" fill="#EE7274"/>
<path d="M114.562 23.5457C117.995 23.5457 120.723 22.4708 120.723 18.5816C120.723 14.6923 117.995 13.6175 114.562 13.6175H106.657C106.561 16.3433 106.518 19.7561 106.518 23.5567H114.562V23.5457ZM101.576 42.9256C101.811 37.3742 101.908 31.0915 101.908 25.8726C101.908 20.6536 101.811 14.371 101.576 8.81958H115.065C121.365 8.81958 125.686 12.0773 125.686 18.5594C125.686 25.0415 121.365 28.2992 115.065 28.2992H106.507C106.55 34.7703 106.604 37.1637 106.839 42.9145H101.576V42.9256Z" fill="white"/>
<path d="M132.992 42.9381C133.228 37.3867 133.367 31.104 133.367 25.885C133.367 18.727 133.228 14.3834 132.992 8.83203H138.351C138.116 14.3834 137.977 18.727 137.977 25.885C137.977 30.6608 138.02 34.949 138.116 38.1623H156.225V42.9381H132.992Z" fill="white"/>
<path d="M162.612 42.9381C162.848 37.3867 162.944 31.104 162.944 25.8851C162.944 20.6661 162.848 14.3834 162.612 8.83203H184.241V13.6078H167.682C167.586 16.3336 167.543 19.7464 167.543 23.5027H182.925V28.2785H167.543C167.543 32.1234 167.586 35.4365 167.682 38.1734H184.979V42.9492H162.602L162.612 42.9381Z" fill="white"/>
<path d="M192.144 42.9381C192.379 37.3867 192.475 31.104 192.475 25.8851C192.475 20.6661 192.379 14.3834 192.144 8.83203H198.155C202.615 17.3087 207.322 25.1981 213.248 35.3811V25.3975C213.248 20.6772 213.152 14.3945 212.916 8.84311H218.04C217.858 14.3945 217.762 20.6772 217.762 25.8961C217.762 31.1151 217.858 37.3978 218.04 42.9492H212.071C208.402 35.9795 201.685 24.5886 196.978 16.4998V26.3948C196.978 31.1151 197.075 37.3978 197.31 42.9492H192.133L192.144 42.9381Z" fill="white"/>
<path d="M247.103 29.8297C244.889 24.0346 242.59 18.2395 240.653 13.6078C238.685 18.3281 236.375 24.0789 234.203 29.8297H247.093H247.103ZM251.906 42.927C251.008 40.3452 249.981 37.5197 248.9 34.5944H232.396C231.315 37.5197 230.278 40.3452 229.39 42.927H223.518C230.663 26.3726 232.588 21.3531 237.348 8.83203H243.98C248.729 21.342 250.708 26.3615 257.853 42.927H251.928H251.906Z" fill="white"/>
<path d="M274.047 27.6912C272.538 24.2895 269.811 18.3392 268.26 15.1258C268.217 17.7076 268.164 22.583 268.164 25.8851C268.164 31.0929 268.26 37.3867 268.495 42.9381H263.232C263.468 37.3867 263.564 31.104 263.564 25.8851C263.564 20.6661 263.468 14.3834 263.232 8.83203H270.987C273.715 15.5579 276.346 21.885 281.427 32.888C286.508 21.885 289.139 15.5469 291.814 8.83203H299.569C299.333 14.3834 299.237 20.6661 299.237 25.8851C299.237 31.104 299.333 37.3867 299.569 42.9381H294.349C294.531 37.3867 294.627 31.104 294.627 25.8851C294.627 22.572 294.584 17.6965 294.531 15.1258C292.98 18.3392 290.252 24.2784 288.744 27.6912C285.781 34.1623 284.048 38.2067 281.406 44.301C278.785 38.2177 276.999 34.1733 274.036 27.6912H274.047Z" fill="white"/>
<path d="M328.591 29.8297C326.377 24.0346 324.077 18.2395 322.141 13.6078C320.173 18.3281 317.862 24.0789 315.701 29.8297H328.591ZM333.383 42.927C332.484 40.3452 331.457 37.5197 330.377 34.5944H313.872C312.792 37.5197 311.754 40.3452 310.867 42.927H304.994C312.139 26.3726 314.065 21.3531 318.825 8.83203H325.457C330.206 21.342 332.185 26.3615 339.33 42.927H333.404H333.383Z" fill="white"/>
<path d="M347.875 42.9368C348.057 36.9976 348.207 31.4351 348.207 23.4571V13.6175H336.74V8.8418H364.295V13.6175H352.828V23.4571C352.828 31.4462 352.924 36.9976 353.106 42.9368H347.886H347.875Z" fill="white"/>
<path d="M385.25 29.8297C383.036 24.0346 380.736 18.2395 378.8 13.6078C376.832 18.3281 374.521 24.0789 372.35 29.8297H385.239H385.25ZM390.053 42.927C389.154 40.3452 388.127 37.5197 387.047 34.5944H370.542C369.462 37.5197 368.424 40.3452 367.536 42.927H361.664C368.809 26.3726 370.735 21.3531 375.495 8.83203H382.127C386.876 21.342 388.855 26.3615 396 42.927H390.074H390.053Z" fill="white"/>
<path d="M44.6059 10.8938C39.9208 11.7691 35.225 14.639 33.9521 19.3593C33.0536 22.6724 34.0484 26.329 36.0379 29.0881C38.0275 31.8471 40.8942 33.8084 43.8999 35.2599C45.4188 35.9913 47.0447 36.6229 48.724 36.5564C50.243 36.4899 51.6977 35.8472 53.0347 35.0937C55.4094 33.7419 57.6771 31.825 58.5649 29.1767C59.9447 25.0991 57.7305 20.689 55.1527 17.2983C52.5213 13.8412 48.8203 10.517 44.6059 10.9159V10.8938Z" fill="#84BC3C"/>
</svg>
