<svg width="1515" height="938" viewBox="0 0 1515 938" fill="none" xmlns="http://www.w3.org/2000/svg">
<path d="M1510.19 515.34C1514.77 547.56 1519.26 580.766 1507.57 611.999C1498.03 637.591 1478.2 660.222 1458.66 682.431C1431.45 713.24 1404.05 744.332 1369.82 770.982C1272.75 846.56 1131.07 879.203 993.412 897.604C921.404 907.192 847.806 940.752 774.769 937.509C735.96 935.746 690.697 917.204 652.636 911.352C518.72 890.624 396.025 838.946 285.582 778.596C175.044 718.246 79.5637 633.15 31.5895 537.125C-0.673868 463.239 -10.4932 380.257 12.7925 304.538C26.5395 259.91 50.1996 216.551 87.3259 180.242C127.632 140.831 182.526 111.009 240.132 86.6148C395.745 20.7655 578.009 -8.98657 756.066 2.36432C934.122 13.7857 1107.04 66.2396 1245.53 150.984C1282.57 173.685 1317.07 198.432 1350.74 223.883C1380.11 245.95 1409 268.652 1431.54 294.879C1487.09 359.459 1499.34 438.986 1510.19 515.41V515.34Z" fill="#263F30"/>
</svg>
