<svg width="756" height="615" viewBox="0 0 756 615" fill="none" xmlns="http://www.w3.org/2000/svg"><path d="M753.232 337.981C755.518 359.112 757.757 380.89 751.927 401.373C747.169 418.158 737.28 433 727.532 447.565C713.959 467.772 700.292 488.163 683.221 505.641C634.805 555.208 564.141 576.617 495.482 588.685C459.566 594.973 422.858 616.983 386.43 614.856C367.073 613.7 344.497 601.539 325.514 597.701C258.72 584.107 197.524 550.215 142.439 510.635C87.3065 471.055 39.6838 415.245 15.7558 352.268C-0.336104 303.811 -5.23369 249.388 6.38048 199.728C13.237 170.459 25.0379 142.023 43.5553 118.21C63.6586 92.3627 91.038 72.8039 119.77 56.8055C197.385 13.6189 288.292 -5.89375 377.101 1.55062C465.91 9.04122 552.153 43.4426 621.232 99.0211C639.703 113.91 656.914 130.139 673.706 146.831C688.352 161.304 702.765 176.193 714.006 193.393C741.712 235.748 747.822 287.904 753.232 338.027V337.981Z" fill="#000000"/></svg>
