<svg width="35" height="40" viewBox="0 0 35 40" fill="none" xmlns="http://www.w3.org/2000/svg">
<mask id="path-1-inside-1_2940_20928" fill="white">
<path fill-rule="evenodd" clip-rule="evenodd" d="M6.78065 9.4129C7.18743 4.14659 11.5896 0 16.9602 0C22.297 0 26.6775 4.09456 27.1316 9.3136C31.2358 10.6373 34.2048 14.4883 34.2048 19.0329C34.2048 24.6718 29.6335 29.2431 23.9946 29.2431C21.3381 29.2431 18.9187 28.2286 17.1024 26.566C15.2861 28.2286 12.8666 29.2431 10.2102 29.2431C4.57128 29.2431 0 24.6718 0 19.0329C0 14.597 2.8287 10.8219 6.78065 9.4129Z"/>
</mask>
<path d="M6.78065 9.4129L7.45231 11.2967L8.67476 10.8609L8.77471 9.56692L6.78065 9.4129ZM27.1316 9.3136L25.1391 9.48695L25.2542 10.8095L26.5177 11.2171L27.1316 9.3136ZM17.1024 26.566L18.4528 25.0908L17.1024 23.8545L15.7519 25.0908L17.1024 26.566ZM8.77471 9.56692C9.10165 5.33423 12.6425 2 16.9602 2V-2C10.5366 -2 5.2732 2.95895 4.78659 9.25888L8.77471 9.56692ZM16.9602 2C21.2506 2 24.7742 5.29234 25.1391 9.48695L29.1241 9.14025C28.5809 2.89679 23.3435 -2 16.9602 -2V2ZM26.5177 11.2171C29.8199 12.2821 32.2048 15.3816 32.2048 19.0329H36.2048C36.2048 13.5951 32.6516 8.99247 27.7455 7.41015L26.5177 11.2171ZM32.2048 19.0329C32.2048 23.5672 28.5289 27.2431 23.9946 27.2431V31.2431C30.7381 31.2431 36.2048 25.7764 36.2048 19.0329H32.2048ZM23.9946 27.2431C21.8573 27.2431 19.9148 26.4291 18.4528 25.0908L15.7519 28.0412C17.9225 30.0282 20.8189 31.2431 23.9946 31.2431V27.2431ZM15.7519 25.0908C14.2899 26.4291 12.3474 27.2431 10.2102 27.2431V31.2431C13.3859 31.2431 16.2823 30.0282 18.4528 28.0412L15.7519 25.0908ZM10.2102 27.2431C5.67585 27.2431 2 23.5672 2 19.0329H-2C-2 25.7764 3.46671 31.2431 10.2102 31.2431V27.2431ZM2 19.0329C2 15.4691 4.27171 12.4307 7.45231 11.2967L6.10899 7.52905C1.38569 9.21308 -2 13.725 -2 19.0329H2Z" fill="#691D07" mask="url(#path-1-inside-1_2940_20928)"/>
<path d="M17.0566 11.9468V40.0001" stroke="#691D07" stroke-width="2"/>
<path d="M10.8965 20.2221L16.8442 23.3942M22.9406 14.77L16.8442 17.843" stroke="#691D07" stroke-width="2"/>
</svg>
