<svg width="24" height="24" viewBox="0 0 24 24" fill="none" xmlns="http://www.w3.org/2000/svg">
<path d="M17.976 24H6.024C5.85638 24 5.69563 23.9334 5.57711 23.8149C5.45858 23.6964 5.392 23.5356 5.392 23.368V19.8507C5.39182 19.7676 5.40805 19.6854 5.43975 19.6086C5.47145 19.5318 5.51799 19.4621 5.57672 19.4034C5.63544 19.3447 5.70518 19.2981 5.78194 19.2664C5.85869 19.2347 5.94096 19.2185 6.024 19.2187H8.97867V6.044H4.78667V7.6C4.78667 7.76762 4.72008 7.92837 4.60156 8.04689C4.48304 8.16541 4.32228 8.232 4.15467 8.232H0.632C0.464383 8.232 0.303631 8.16541 0.185108 8.04689C0.0665855 7.92837 0 7.76762 0 7.6V0.632001C0 0.464384 0.0665855 0.303633 0.185108 0.18511C0.303631 0.0665869 0.464383 1.41256e-06 0.632 1.41256e-06H23.368C23.451 -0.000174344 23.5333 0.0160528 23.6101 0.0477516C23.6868 0.0794503 23.7566 0.125996 23.8153 0.184718C23.874 0.24344 23.9205 0.31318 23.9522 0.389938C23.9839 0.466695 24.0002 0.548957 24 0.632001V7.6C24.0002 7.68304 23.9839 7.76531 23.9522 7.84206C23.9205 7.91882 23.874 7.98856 23.8153 8.04728C23.7566 8.10601 23.6868 8.15255 23.6101 8.18425C23.5333 8.21595 23.451 8.23218 23.368 8.232H19.8453C19.6777 8.232 19.517 8.16541 19.3984 8.04689C19.2799 7.92837 19.2133 7.76762 19.2133 7.6V6.044H15.0213V19.2187H17.976C18.059 19.2185 18.1413 19.2347 18.2181 19.2664C18.2948 19.2981 18.3646 19.3447 18.4233 19.4034C18.482 19.4621 18.5285 19.5318 18.5602 19.6086C18.5919 19.6854 18.6082 19.7676 18.608 19.8507V23.368C18.608 23.5356 18.5414 23.6964 18.4229 23.8149C18.3044 23.9334 18.1436 24 17.976 24ZM6.656 22.7373H17.3453V20.4827H14.3893C14.2217 20.4827 14.061 20.4161 13.9424 20.2976C13.8239 20.179 13.7573 20.0183 13.7573 19.8507V5.412C13.7572 5.32896 13.7734 5.24669 13.8051 5.16994C13.8368 5.09318 13.8833 5.02344 13.942 4.96472C14.0008 4.906 14.0705 4.85945 14.1473 4.82775C14.224 4.79605 14.3063 4.77983 14.3893 4.78H19.8453C19.9284 4.77983 20.0106 4.79605 20.0874 4.82775C20.1642 4.85945 20.2339 4.906 20.2926 4.96472C20.3513 5.02344 20.3979 5.09318 20.4296 5.16994C20.4613 5.24669 20.4775 5.32896 20.4773 5.412V6.968H22.7373V1.26267H1.26267V6.968H3.52267V5.412C3.52249 5.32896 3.53872 5.24669 3.57042 5.16994C3.60212 5.09318 3.64866 5.02344 3.70738 4.96472C3.7661 4.906 3.83585 4.85945 3.9126 4.82775C3.98936 4.79605 4.07162 4.77983 4.15467 4.78H9.61067C9.69371 4.77983 9.77597 4.79605 9.85273 4.82775C9.92949 4.85945 9.99923 4.906 10.058 4.96472C10.1167 5.02344 10.1632 5.09318 10.1949 5.16994C10.2266 5.24669 10.2428 5.32896 10.2427 5.412V19.8507C10.2427 19.9337 10.2263 20.0158 10.1946 20.0925C10.1628 20.1692 10.1162 20.2389 10.0576 20.2976C9.99887 20.3562 9.9292 20.4028 9.85252 20.4346C9.77584 20.4663 9.69366 20.4827 9.61067 20.4827H6.656V22.7373Z" fill="#000000"/>
</svg>
