<svg width="27" height="26" viewBox="0 0 27 26" fill="none" xmlns="http://www.w3.org/2000/svg">
<path d="M11.3327 19.5001C13.2556 19.4997 15.1231 18.856 16.6378 17.6714L21.4001 22.4337L22.9319 20.9019L18.1696 16.1396C19.3548 14.6247 19.9989 12.7568 19.9993 10.8334C19.9993 6.05483 16.1113 2.16675 11.3327 2.16675C6.5541 2.16675 2.66602 6.05483 2.66602 10.8334C2.66602 15.612 6.5541 19.5001 11.3327 19.5001ZM11.3327 4.33341C14.9174 4.33341 17.8327 7.24866 17.8327 10.8334C17.8327 14.4182 14.9174 17.3334 11.3327 17.3334C7.74793 17.3334 4.83268 14.4182 4.83268 10.8334C4.83268 7.24866 7.74793 4.33341 11.3327 4.33341Z" fill="#000000"/>
</svg>
