<svg width="25" height="25" viewBox="0 0 25 25" fill="none" xmlns="http://www.w3.org/2000/svg">
<path d="M12.4756 8.47314V22.5001M9.40332 12.6113L12.3772 14.1974M15.4255 9.88525L12.3772 11.4218M7.33587 7.20796C7.53858 4.57408 9.74001 2.5 12.4259 2.5C15.0941 2.5 17.2843 4.54698 17.5116 7.15625C19.5646 7.81759 21.05 9.74359 21.05 12.0165C21.05 14.8361 18.7643 17.1217 15.9447 17.1217C14.6172 17.1217 13.408 16.615 12.5 15.7845C11.592 16.6149 10.3829 17.1216 9.05542 17.1216C6.23588 17.1216 3.9502 14.8359 3.9502 12.0164C3.9502 9.80017 5.36232 7.91381 7.33587 7.20796Z" stroke="#000000" stroke-width="1.5"/>
</svg>
