<svg width="24" height="26" viewBox="0 0 24 26" fill="none" xmlns="http://www.w3.org/2000/svg">
<path d="M19.0181 16.1664C18.3549 16.1666 17.6994 16.3088 17.0957 16.5833C16.492 16.8579 15.9541 17.2584 15.5181 17.7581L9.23481 14.7065C9.49767 14.1204 9.63009 13.4842 9.62289 12.8419C9.6157 12.1996 9.46903 11.5666 9.1931 10.9865L15.5781 7.97807C16.2999 8.75684 17.2713 9.2588 18.3242 9.39694C19.377 9.53508 20.4451 9.3008 21.3434 8.7346C22.2417 8.16841 22.9138 7.30588 23.2433 6.29645C23.5728 5.28702 23.539 4.19412 23.1478 3.20695C22.7566 2.21979 22.0326 1.40054 21.1011 0.89087C20.1695 0.381202 19.0891 0.213254 18.0468 0.416118C17.0045 0.618982 16.0659 1.17987 15.3935 2.00171C14.7211 2.82355 14.3572 3.85461 14.3648 4.91645C14.366 5.49437 14.4792 6.06656 14.6981 6.60142L8.24808 9.63813C7.60399 8.99397 6.78271 8.5562 5.88886 8.3806C4.99502 8.205 4.06917 8.29949 3.22926 8.6521C2.38934 9.00471 1.67341 9.59945 1.17278 10.3605C0.672151 11.1215 0.409435 12.0144 0.41818 12.9253C0.426925 13.8362 0.706766 14.7237 1.22191 15.475C1.73706 16.2263 2.46421 16.8072 3.31074 17.1436C4.15727 17.48 5.08482 17.5568 5.97513 17.3641C6.86543 17.1713 7.67822 16.7179 8.30982 16.0615L14.6682 19.1497C14.4698 19.6601 14.3658 20.2023 14.3615 20.7498C14.3486 21.6718 14.6101 22.5769 15.113 23.3498C15.6159 24.1227 16.3373 24.7286 17.1855 25.0904C18.0336 25.4522 18.9702 25.5536 19.8761 25.3816C20.782 25.2097 21.6163 24.7721 22.2729 24.1247C22.9295 23.4773 23.3787 22.6492 23.5634 21.7458C23.7481 20.8424 23.66 19.9044 23.3101 19.0513C22.9603 18.1981 22.3647 17.4683 21.5989 16.9546C20.8331 16.4409 19.9319 16.1665 19.0098 16.1664H19.0181ZM19.0181 1.94983C19.603 1.95673 20.1727 2.13642 20.6557 2.46639C21.1387 2.79636 21.5133 3.26183 21.7324 3.80418C21.9514 4.34654 22.0051 4.94156 21.8868 5.51439C21.7685 6.08722 21.4834 6.61221 21.0674 7.02338C20.6514 7.43455 20.123 7.71348 19.5488 7.82508C18.9747 7.93667 18.3803 7.87602 17.8406 7.65062C17.3008 7.42521 16.8398 7.0452 16.5155 6.55839C16.1912 6.07159 16.0182 5.49974 16.0182 4.91482C16.0256 4.12485 16.3452 3.36987 16.9072 2.8147C17.4693 2.25953 18.2281 1.94922 19.0181 1.95146V1.94983ZM4.98147 15.8498C4.39659 15.8429 3.82676 15.6632 3.3438 15.3332C2.86083 15.0033 2.4863 14.5378 2.26724 13.9954C2.04818 13.4531 1.99439 12.8581 2.11272 12.2852C2.23105 11.7124 2.5162 11.1873 2.93222 10.7761C3.34824 10.365 3.8766 10.086 4.45077 9.97443C5.02495 9.86283 5.6193 9.92358 6.15905 10.149C6.69879 10.3744 7.15984 10.7544 7.48412 11.2412C7.8084 11.728 7.98141 12.2999 7.98145 12.8848C7.97485 13.6752 7.65557 14.4308 7.09339 14.9864C6.53121 15.5421 5.77189 15.8524 4.98147 15.8498ZM19.0181 23.7148C18.4333 23.7079 17.8634 23.5282 17.3805 23.1982C16.8975 22.8682 16.523 22.4028 16.3039 21.8604C16.0848 21.3181 16.0311 20.723 16.1494 20.1502C16.2677 19.5774 16.5529 19.0523 16.9689 18.6411C17.3849 18.23 17.9133 17.951 18.4874 17.8394C19.0616 17.7278 19.656 17.7886 20.1957 18.014C20.7355 18.2394 21.1965 18.6194 21.5208 19.1062C21.8451 19.593 22.0181 20.1649 22.0181 20.7498C22.0115 21.5402 21.6922 22.2958 21.1301 22.8514C20.5679 23.4071 19.8086 23.7174 19.0181 23.7148Z" fill="#000000"/>
</svg>
