<svg width="26" height="22" viewBox="0 0 26 22" fill="none" xmlns="http://www.w3.org/2000/svg">
<path d="M21.9686 0H4.02972C2.95907 0.00339916 1.9334 0.485985 1.17787 1.34188C0.422327 2.19777 -0.00129277 3.357 2.96373e-06 4.56498V17.4349C-0.00129277 18.6429 0.422327 19.8021 1.17787 20.658C1.9334 21.5139 2.95907 21.9966 4.02972 22H21.9686C23.0397 21.9966 24.0658 21.5137 24.8216 20.6575C25.5775 19.8012 26.0013 18.6416 26 17.4331V4.56498C26.0013 3.35668 25.5774 2.19715 24.8215 1.34121C24.0657 0.485261 23.0395 0.00291421 21.9686 0ZM4.02972 1.74527H21.9686C22.3431 1.74791 22.7121 1.84702 23.0475 2.03497L14.5591 10.7085C14.1345 11.1515 13.5775 11.3975 12.9992 11.3975C12.4209 11.3975 11.8639 11.1515 11.4393 10.7085L2.95083 2.03676C3.28676 1.85128 3.65572 1.75474 4.02972 1.75445V1.74527ZM24.458 17.4331C24.4588 18.1798 24.197 18.8964 23.7299 19.4255C23.2629 19.9545 22.6288 20.2527 21.967 20.2546H4.02972C3.36834 20.2527 2.73471 19.9546 2.26796 19.4259C1.80121 18.8972 1.53954 18.1811 1.5404 17.4349V4.56498C1.5433 4.10501 1.64654 3.65289 1.841 3.24862L10.4042 11.9972C11.1107 12.7329 12.0369 13.1415 12.9983 13.1415C13.9598 13.1415 14.886 12.7329 15.5925 11.9972L24.1557 3.24683C24.3502 3.65045 24.4534 4.1019 24.4563 4.56129L24.458 17.4331Z" fill="#000000"/>
</svg>
