<svg width="38" height="21" viewBox="0 0 38 21" fill="none" xmlns="http://www.w3.org/2000/svg">
<path d="M11.7309 11.3438C11.8242 11.2544 11.8989 11.1475 11.9507 11.0292C12.0025 10.9108 12.0303 10.7834 12.0326 10.6542C12.035 10.525 12.0117 10.3967 11.9642 10.2765C11.9167 10.1564 11.8459 10.0468 11.7559 9.9542C11.1528 9.3415 10.4369 8.85126 9.64757 8.51046C10.289 7.79921 10.6457 6.87649 10.6496 5.91876C10.6259 4.88768 10.1997 3.90688 9.46212 3.18603C8.72451 2.46519 7.7341 2.06159 6.70275 2.06159C5.67141 2.06159 4.681 2.46519 3.94339 3.18603C3.20579 3.90688 2.77957 4.88768 2.75588 5.91876C2.75936 6.87293 3.11381 7.79245 3.75171 8.50207C2.69306 8.97844 1.78442 9.73456 1.12364 10.689C0.462847 11.6435 0.0749707 12.7602 0.00173315 13.9188C-0.013686 14.1786 0.0742585 14.4338 0.246382 14.629C0.418506 14.8241 0.660792 14.9433 0.920439 14.9605H0.987133C1.23697 14.9605 1.47749 14.8657 1.66005 14.6951C1.8426 14.5245 1.9536 14.2909 1.9705 14.0416C2.0049 13.4522 2.15588 12.8755 2.41472 12.3447C2.67356 11.814 3.03506 11.3399 3.47838 10.9498C3.92171 10.5598 4.43803 10.2616 4.9974 10.0725C5.55676 9.88331 6.14809 9.80694 6.73715 9.84789C7.40646 9.82562 8.07298 9.94397 8.69377 10.1952C9.31456 10.4463 9.87578 10.8248 10.3413 11.3063C10.5217 11.4934 10.7685 11.6023 11.0284 11.6093C11.2883 11.6163 11.5406 11.5209 11.7309 11.3438ZM6.70377 7.88333C6.31557 7.88168 5.93659 7.76514 5.61461 7.54827C5.29264 7.3314 5.04213 7.02391 4.89472 6.66478C4.7473 6.30566 4.70957 5.91096 4.78632 5.53042C4.86306 5.14988 5.05082 4.80057 5.3259 4.52665C5.60098 4.25273 5.95104 4.06645 6.3319 3.99132C6.71277 3.91619 7.10739 3.95568 7.46588 4.10461C7.82438 4.25355 8.13068 4.50524 8.34619 4.82813C8.5617 5.15103 8.67673 5.53055 8.67673 5.91876C8.67508 6.44073 8.46639 6.94077 8.09652 7.30909C7.72664 7.6774 7.22575 7.88388 6.70377 7.88333ZM22.6454 10.7709C23.3351 10.2069 23.8914 9.49732 24.2746 8.69306C24.6579 7.88879 24.8585 7.00967 24.8621 6.11877C24.8621 4.49598 24.2174 2.93963 23.07 1.79214C21.9225 0.644656 20.3662 0 18.7434 0C17.1206 0 15.5643 0.644656 14.4168 1.79214C13.2693 2.93963 12.6246 4.49598 12.6246 6.11877C12.628 7.0145 12.8305 7.89833 13.2175 8.70615C13.6045 9.51398 14.1663 10.2256 14.8621 10.7896C12.9418 11.4407 11.2561 12.6435 10.0158 14.2476C8.77557 15.8518 8.03585 17.786 7.88919 19.8083C7.87377 20.0681 7.96171 20.3235 8.13384 20.5186C8.30596 20.7138 8.54831 20.8328 8.80796 20.85C8.93679 20.8602 9.06634 20.8445 9.18898 20.8037C9.31163 20.763 9.42489 20.6981 9.52201 20.6128C9.61912 20.5276 9.69817 20.4236 9.75445 20.3073C9.81072 20.1909 9.84306 20.0645 9.84962 19.9355C10.1477 17.7914 11.2112 15.8274 12.8438 14.4059C14.4765 12.9845 16.5682 12.2016 18.733 12.2016C20.8977 12.2016 22.9894 12.9845 24.6221 14.4059C26.2548 15.8274 27.3183 17.7914 27.6163 19.9355C27.6337 20.1847 27.7452 20.418 27.9282 20.5882C28.1111 20.7584 28.3519 20.8528 28.6017 20.8521H28.6663C28.926 20.835 29.1682 20.7158 29.3404 20.5207C29.5125 20.3255 29.6004 20.0702 29.585 19.8105C29.4433 17.7889 28.7097 15.8537 27.4757 14.2462C26.2416 12.6388 24.5618 11.4302 22.6454 10.7709ZM18.7434 10.2437C17.9279 10.2404 17.1315 9.99566 16.455 9.54017C15.7785 9.08469 15.2522 8.43899 14.9424 7.68458C14.6326 6.93017 14.5532 6.10089 14.7143 5.30141C14.8754 4.50194 15.2698 3.76804 15.8477 3.19252C16.4255 2.617 17.1609 2.22559 17.961 2.06769C18.7611 1.90979 19.5901 1.9925 20.3432 2.30535C21.0964 2.6182 21.74 3.14718 22.1927 3.82551C22.6455 4.50383 22.8871 5.30119 22.8871 6.11674C22.8838 7.21318 22.4456 8.26353 21.6688 9.03727C20.8919 9.81101 19.8398 10.2448 18.7434 10.2437ZM33.7434 8.49584C34.3783 7.78805 34.7313 6.87178 34.735 5.92092C34.7114 4.88984 34.2851 3.90892 33.5475 3.18807C32.8099 2.46722 31.8195 2.06362 30.7882 2.06362C29.7568 2.06362 28.7664 2.46722 28.0288 3.18807C27.2912 3.90892 26.865 4.88984 26.8413 5.92092C26.845 6.87506 27.1994 7.79451 27.8371 8.50423C27.0505 8.85296 26.3371 9.34786 25.735 9.96259C25.645 10.0552 25.5742 10.1648 25.5267 10.2849C25.4792 10.4051 25.456 10.5334 25.4583 10.6626C25.4606 10.7918 25.4884 10.9191 25.5402 11.0374C25.592 11.1558 25.6667 11.2628 25.76 11.3522C25.949 11.5331 26.202 11.6318 26.4636 11.6267C26.7252 11.6216 26.9741 11.5132 27.1559 11.3251C27.627 10.8319 28.1991 10.4463 28.833 10.1946C29.4669 9.94296 30.1477 9.83108 30.8288 9.86671C32.0076 9.8013 33.1641 10.2061 34.0448 10.9923C34.9255 11.7785 35.4585 12.8819 35.5267 14.0605C35.5436 14.3101 35.6549 14.5439 35.8379 14.7146C36.0209 14.8852 36.2619 14.9797 36.5121 14.9792H36.5767C36.8364 14.962 37.0787 14.843 37.2508 14.6478C37.4229 14.4526 37.5108 14.1973 37.4954 13.9375C37.4209 12.7753 37.0321 11.6552 36.3705 10.6968C35.709 9.73837 34.7995 8.97762 33.7392 8.49584H33.7434ZM30.7872 7.88549C30.399 7.88384 30.0199 7.76717 29.6979 7.5503C29.376 7.33343 29.1255 7.02607 28.978 6.66695C28.8306 6.30782 28.7929 5.913 28.8696 5.53245C28.9464 5.15191 29.1341 4.80273 29.4092 4.52881C29.6843 4.25489 30.0344 4.06861 30.4152 3.99348C30.7961 3.91835 31.1907 3.95771 31.5492 4.10665C31.9077 4.25558 32.214 4.50741 32.4295 4.8303C32.645 5.15319 32.76 5.53272 32.7601 5.92092C32.7578 6.44325 32.5484 6.94327 32.1777 7.31125C31.807 7.67923 31.3053 7.88499 30.783 7.88333L30.7872 7.88549Z" fill="#000000"/>
</svg>
