<svg width="10" height="19" viewBox="0 0 10 19" fill="none" xmlns="http://www.w3.org/2000/svg">
<mask id="path-1-inside-1_1189_9218" fill="#000000">
<path fill-rule="evenodd" clip-rule="evenodd" d="M10 9.42472L8.87502 8.29974L8.87498 8.29979L1.125 0.549804L2.2839e-05 1.67478L7.75 9.42476L0.000206221 17.1746L1.12518 18.2995L10 9.42472Z"/>
</mask>
<path fill-rule="evenodd" clip-rule="evenodd" d="M10 9.42472L8.87502 8.29974L8.87498 8.29979L1.125 0.549804L2.2839e-05 1.67478L7.75 9.42476L0.000206221 17.1746L1.12518 18.2995L10 9.42472Z" fill="#000000"/>
<path d="M8.87502 8.29974L9.58213 7.59264L8.87309 6.8836L8.16599 7.59456L8.87502 8.29974ZM10 9.42472L10.7071 10.1318L11.4142 9.42472L10.7071 8.71761L10 9.42472ZM8.87498 8.29979L8.16787 9.00689L8.87691 9.71593L9.58401 9.00496L8.87498 8.29979ZM1.125 0.549804L1.83211 -0.157302L1.125 -0.864409L0.417893 -0.157303L1.125 0.549804ZM2.2839e-05 1.67478L-0.707084 0.967674L-1.41419 1.67478L-0.707084 2.38189L2.2839e-05 1.67478ZM7.75 9.42476L8.45711 10.1319L9.16422 9.42476L8.45711 8.71766L7.75 9.42476ZM0.000206221 17.1746L-0.7069 16.4674L-1.41401 17.1746L-0.7069 17.8817L0.000206221 17.1746ZM1.12518 18.2995L0.418077 19.0066L1.12518 19.7137L1.83229 19.0066L1.12518 18.2995ZM8.16792 9.00685L9.29289 10.1318L10.7071 8.71761L9.58213 7.59264L8.16792 9.00685ZM9.58401 9.00496L9.58405 9.00492L8.16599 7.59456L8.16595 7.59461L9.58401 9.00496ZM0.417893 1.25691L8.16787 9.00689L9.58209 7.59268L1.83211 -0.157302L0.417893 1.25691ZM0.707129 2.38189L1.83211 1.25691L0.417893 -0.157303L-0.707084 0.967674L0.707129 2.38189ZM8.45711 8.71766L0.707129 0.967674L-0.707084 2.38189L7.0429 10.1319L8.45711 8.71766ZM0.707313 17.8817L8.45711 10.1319L7.0429 8.71766L-0.7069 16.4674L0.707313 17.8817ZM1.83229 17.5924L0.707313 16.4674L-0.7069 17.8817L0.418077 19.0066L1.83229 17.5924ZM9.29289 8.71761L0.418077 17.5924L1.83229 19.0066L10.7071 10.1318L9.29289 8.71761Z" fill="#000000" mask="url(#path-1-inside-1_1189_9218)"/>
</svg>
