<svg width="25" height="24" viewBox="0 0 25 24" fill="none" xmlns="http://www.w3.org/2000/svg">
<path fill-rule="evenodd" clip-rule="evenodd" d="M20.3456 5.59444C20.3456 6.38981 19.7008 7.03444 18.9056 7.03444C18.1104 7.03444 17.4656 6.38981 17.4656 5.59444C17.4656 4.79906 18.1104 4.15444 18.9056 4.15444C19.7009 4.15444 20.3456 4.79906 20.3456 5.59444ZM12.5 15.9999C10.2909 15.9999 8.50006 14.2091 8.50006 12C8.50006 9.79088 10.2909 8.00006 12.5 8.00006C14.7091 8.00006 16.4999 9.79088 16.4999 12C16.4999 14.2091 14.7091 15.9999 12.5 15.9999ZM12.5 5.83781C9.09669 5.83781 6.33781 8.59669 6.33781 12C6.33781 15.4033 9.09669 18.1622 12.5 18.1622C15.9033 18.1622 18.6622 15.4033 18.6622 12C18.6622 8.59669 15.9033 5.83781 12.5 5.83781ZM12.5 2.16225C15.7042 2.16225 16.0837 2.17444 17.3489 2.23219C18.5189 2.28563 19.1544 2.481 19.5772 2.64544C20.1373 2.86313 20.537 3.12319 20.957 3.54319C21.377 3.963 21.6371 4.36275 21.8547 4.923C22.019 5.34581 22.2146 5.98125 22.268 7.15125C22.3258 8.41669 22.3379 8.79619 22.3379 12.0004C22.3379 15.2046 22.3258 15.5841 22.268 16.8493C22.2146 18.0193 22.0192 18.6548 21.8547 19.0776C21.6371 19.6376 21.377 20.0374 20.957 20.4574C20.5372 20.8774 20.1374 21.1374 19.5772 21.3551C19.1544 21.5194 18.5189 21.7149 17.3489 21.7684C16.0837 21.8261 15.7042 21.8383 12.5 21.8383C9.29563 21.8383 8.91613 21.8261 7.65088 21.7684C6.48088 21.7149 5.84544 21.5196 5.42263 21.3551C4.86256 21.1374 4.46281 20.8774 4.04281 20.4574C3.623 20.0376 3.36275 19.6378 3.14506 19.0776C2.98081 18.6548 2.78525 18.0193 2.73181 16.8493C2.67406 15.5839 2.66188 15.2044 2.66188 12.0004C2.66188 8.79619 2.67406 8.41669 2.73181 7.15125C2.78525 5.98125 2.98062 5.34581 3.14506 4.923C3.36275 4.36294 3.62281 3.96319 4.04281 3.54319C4.46263 3.12319 4.86238 2.86313 5.42263 2.64544C5.84544 2.48119 6.48088 2.28563 7.65088 2.23219C8.91631 2.17444 9.29581 2.16225 12.5 2.16225ZM12.5 0C9.24106 0 8.83231 0.0138752 7.55244 0.0721877C6.27519 0.1305 5.40275 0.333375 4.63962 0.63C3.85044 0.936563 3.18125 1.347 2.51413 2.01413C1.847 2.68125 1.43656 3.35044 1.13 4.13962C0.833375 4.90294 0.6305 5.77519 0.572188 7.05244C0.513875 8.33231 0.5 8.74106 0.5 12C0.5 15.2589 0.513875 15.6677 0.572188 16.9476C0.6305 18.2248 0.833375 19.0971 1.13 19.8604C1.43656 20.6496 1.847 21.3188 2.51413 21.9859C3.18125 22.653 3.85044 23.0632 4.63962 23.37C5.40294 23.6666 6.27519 23.8695 7.55244 23.9278C8.83231 23.9861 9.24106 24 12.5 24C15.7589 24 16.1677 23.9861 17.4476 23.9278C18.7248 23.8695 19.5971 23.6666 20.3604 23.37C21.1496 23.0632 21.8188 22.653 22.4859 21.9859C23.153 21.3188 23.5632 20.6496 23.87 19.8604C24.1666 19.0971 24.3695 18.2248 24.4278 16.9476C24.4861 15.6677 24.5 15.2589 24.5 12C24.5 8.74106 24.4861 8.33231 24.4278 7.05244C24.3695 5.77519 24.1666 4.90294 23.87 4.13962C23.5632 3.35044 23.153 2.68125 22.4859 2.01413C21.8188 1.347 21.1496 0.93675 20.3604 0.63C19.5971 0.333375 18.7248 0.1305 17.4476 0.0721877C16.1677 0.0138752 15.7589 0 12.5 0Z" fill="#000000"/>
</svg>
