<svg width="12" height="25" viewBox="0 0 12 25" fill="none" xmlns="http://www.w3.org/2000/svg">
<path fill-rule="evenodd" clip-rule="evenodd" d="M3.00996 14.7967L3.00996 24.084C3.00996 24.2736 3.10473 24.3683 3.29427 24.3683H7.55885C7.74838 24.3683 7.84316 24.2736 7.84316 24.084L7.84316 12.3327H10.9705C11.1601 12.3327 11.2548 12.238 11.2548 12.0484L11.5391 8.44724C11.5391 8.2577 11.4443 8.16293 11.2548 8.16293L7.84316 8.16293V5.60419C7.84316 5.03558 8.31699 4.56173 8.8856 4.56173H11.2548C11.4443 4.56173 11.5391 4.46697 11.5391 4.27743V0.770999C11.5391 0.581462 11.4443 0.486694 11.2548 0.486694L7.17978 0.486694C4.81057 0.486694 2.82043 2.38206 2.82043 4.84604L2.82043 8.16293H0.640754C0.451217 8.16293 0.356445 8.2577 0.356445 8.44724L0.356445 12.0484C0.356445 12.238 0.451217 12.3327 0.640754 12.3327H2.82043L2.82043 14.7967H3.00996Z" fill="#000000"/>
</svg>
