<svg width="12" height="16" viewBox="0 0 12 16" fill="none" xmlns="http://www.w3.org/2000/svg">
<path d="M5.58079 2.23621C5.0439 2.23621 4.51906 2.39541 4.07265 2.6937C3.62624 2.99198 3.27831 3.41594 3.07285 3.91196C2.86739 4.40799 2.81363 4.9538 2.91837 5.48038C3.02311 6.00695 3.28165 6.49065 3.66129 6.87029C4.04094 7.24993 4.52463 7.50847 5.0512 7.61321C5.57778 7.71795 6.12359 7.66419 6.61962 7.45873C7.11564 7.25327 7.5396 6.90534 7.83788 6.45893C8.13617 6.01252 8.29537 5.48768 8.29537 4.95079C8.29537 4.23084 8.00937 3.54037 7.50029 3.03129C6.99121 2.52221 6.30075 2.23621 5.58079 2.23621ZM5.58079 6.71787C5.2313 6.71787 4.88965 6.61423 4.59905 6.42006C4.30846 6.22589 4.08197 5.94991 3.94822 5.62702C3.81447 5.30413 3.77948 4.94883 3.84766 4.60605C3.91585 4.26327 4.08415 3.9484 4.33128 3.70127C4.57841 3.45414 4.89327 3.28584 5.23605 3.21766C5.57883 3.14947 5.93413 3.18447 6.25703 3.31822C6.57992 3.45196 6.8559 3.67845 7.05007 3.96905C7.24424 4.25964 7.34788 4.60129 7.34788 4.95079C7.34662 5.41863 7.15989 5.86687 6.82864 6.19724C6.49738 6.52761 6.04863 6.71313 5.58079 6.71313V6.71787Z" fill="#000000"/>
<path d="M5.58076 4.68974e-10C4.10513 0.00123249 2.68994 0.586352 1.64429 1.62756C0.598643 2.66877 0.00750907 4.08146 0 5.55707C0 7.76948 1.24122 9.62184 2.15082 10.972L2.31663 11.2184C3.22162 12.53 4.19247 13.795 5.22545 15.0084L5.5855 15.43L5.94555 15.0084C6.97839 13.7949 7.94924 12.5299 8.85437 11.2184L9.02018 10.9673C9.92504 9.6171 11.1663 7.76948 11.1663 5.55707C11.1587 4.08064 10.567 2.66724 9.52029 1.62589C8.47362 0.584548 7.05722 -1.91186e-05 5.58076 4.68974e-10ZM8.22902 10.4225L8.05847 10.6736C7.24362 11.8958 6.16347 13.265 5.58076 13.9424C5.02174 13.265 3.9179 11.8958 3.10306 10.6736L2.93724 10.4225C2.09871 9.17178 0.947498 7.46154 0.947498 5.53812C0.947498 4.92968 1.06734 4.32718 1.30018 3.76505C1.53303 3.20292 1.87431 2.69215 2.30455 2.26191C2.73479 1.83167 3.24555 1.49039 3.80769 1.25755C4.36982 1.0247 4.97231 0.90486 5.58076 0.90486C6.18921 0.90486 6.7917 1.0247 7.35384 1.25755C7.91597 1.49039 8.42674 1.83167 8.85697 2.26191C9.28721 2.69215 9.6285 3.20292 9.86134 3.76505C10.0942 4.32718 10.214 4.92968 10.214 5.53812C10.214 7.48049 9.06755 9.19073 8.22902 10.4225Z" fill="#000000"/>
</svg>
