<svg width="25" height="24" viewBox="0 0 25 24" fill="none" xmlns="http://www.w3.org/2000/svg">
<path fill-rule="evenodd" clip-rule="evenodd" d="M21.0067 3.43194C19.3294 1.78745 17.2064 0.671366 14.9008 0.222063C12.5952 -0.227239 10.2085 0.00999554 8.03649 0.904356C5.86447 1.79872 4.00269 3.31087 2.68197 5.25336C1.36125 7.19584 0.63966 9.48323 0.606667 11.8319C0.598273 13.9199 1.14592 15.9724 2.19333 17.7786L0.5 23.9386L6.83333 22.2853C8.57542 23.2246 10.5208 23.7236 12.5 23.7386C15.6642 23.7387 18.7004 22.4891 20.9478 20.2617C23.1952 18.0343 24.4719 15.0094 24.5 11.8453C24.5058 10.2812 24.1998 8.73159 23.6 7.28704C23.0002 5.8425 22.1186 4.53195 21.0067 3.43194ZM12.5 21.7253C10.7275 21.7341 8.98411 21.2741 7.44667 20.3919L7.16667 20.1253L3.40667 21.1119L4.40667 17.4719L4.18 17.0853C3.18306 15.5148 2.65569 13.6921 2.66 11.8319C2.65215 9.86167 3.23041 7.93358 4.32126 6.29282C5.4121 4.65206 6.96624 3.37277 8.78606 2.61761C10.6059 1.86245 12.6092 1.66554 14.5412 2.05191C16.4732 2.43829 18.2467 3.3905 19.6361 4.78746C21.0256 6.18442 21.9682 7.96302 22.3441 9.89711C22.72 11.8312 22.5123 13.8334 21.7473 15.6491C20.9823 17.4648 19.6946 19.012 18.048 20.094C16.4014 21.1759 14.4702 21.7438 12.5 21.7253ZM17.94 14.3253C17.6467 14.1786 16.18 13.4586 15.9 13.3519C15.62 13.2453 15.4333 13.2053 15.2333 13.4986C15.0333 13.7919 14.46 14.4719 14.2867 14.6719C14.1133 14.8719 13.94 14.8853 13.6467 14.6719C12.7852 14.3447 11.9868 13.871 11.2867 13.2719C10.6348 12.6701 10.0774 11.9733 9.63333 11.2053C9.46 10.9119 9.63333 10.7519 9.76667 10.6053C9.9 10.4586 10.06 10.2586 10.2067 10.0853C10.326 9.93213 10.4288 9.76676 10.5133 9.59194C10.5533 9.5111 10.5741 9.42212 10.5741 9.33194C10.5741 9.24176 10.5533 9.15279 10.5133 9.07194C10.4333 8.91194 9.83333 7.45861 9.59333 6.85861C9.35333 6.25861 9.1 6.35194 8.91333 6.35194H8.31333C8.16378 6.35774 8.01695 6.39381 7.88174 6.45798C7.74652 6.52215 7.62573 6.61308 7.52667 6.72527C7.1855 7.0405 6.91518 7.42459 6.73359 7.85212C6.552 8.27966 6.46329 8.74088 6.47333 9.20527C6.57561 10.325 7.00187 11.3906 7.7 12.2719C8.98143 14.1843 10.7361 15.7323 12.7933 16.7653C13.3502 17.0056 13.9199 17.2148 14.5 17.3919C15.1097 17.5724 15.7523 17.6134 16.38 17.5119C16.7947 17.4273 17.1875 17.2582 17.5339 17.015C17.8803 16.7718 18.1729 16.4599 18.3933 16.0986C18.5936 15.6561 18.654 15.163 18.5667 14.6853C18.3973 14.5338 18.2034 14.412 17.9933 14.3253H17.94Z" fill="#000000"/>
</svg>
