<svg width="5" height="9" viewBox="0 0 5 9" fill="none" xmlns="http://www.w3.org/2000/svg">
<path d="M4.99625 4.41921C4.97863 4.24221 4.90481 4.07484 4.78508 3.94014L1.58344 0.322657C1.43282 0.140613 1.21233 0.0256223 0.972527 0.00375743C0.732696 -0.0179911 0.493996 0.0553074 0.311109 0.207069C0.128104 0.358711 0.0164404 0.57583 0.00167414 0.808599C-0.0130902 1.04147 0.0702873 1.27014 0.232694 1.44243L2.9397 4.5L0.232695 7.55757C0.0702844 7.72988 -0.0130918 7.95854 0.00167447 8.1914C0.0164389 8.42415 0.128104 8.64128 0.311109 8.79293C0.49399 8.94469 0.73269 9.01799 0.972527 8.99624C1.21236 8.97437 1.43283 8.85938 1.58344 8.67734L4.78508 5.05986C4.94216 4.88287 5.01834 4.65158 4.99625 4.41921Z" fill="#000000"/>
</svg>
