<svg width="380" height="50" viewBox="0 0 380 50" fill="none" xmlns="http://www.w3.org/2000/svg">
<path d="M76.2793 8.06402C77.8272 9.35477 79.3547 11.086 79.1701 13.0836C79.0369 14.5075 78.063 15.6856 77.1917 16.8329C75.3362 19.2608 73.819 21.8935 72.3838 24.5979C73.1322 21.0535 72.3121 17.1915 71.1332 13.688C70.0671 10.5533 68.7344 7.51084 67.1455 4.60153C66.6432 3.68981 65.1055 2.16345 65.1055 2.16345C69.1752 3.43371 73.0092 5.34935 76.2895 8.06402H76.2793Z" fill="#EE7274"/>
<path d="M71.1225 13.6881C72.3116 17.1813 73.1317 21.0536 72.3731 24.598C71.0507 27.118 69.8001 29.679 68.4674 32.1888C65.6894 37.3826 62.3065 42.4943 57.3551 45.7007C50.8559 49.911 42.3986 50.2388 34.9358 48.1695C30.5175 46.9403 26.3863 44.9529 22.4293 42.607C17.0372 38.0177 13.7363 30.9493 12.1679 24.0755C11.6245 21.6989 11.3375 19.2199 11.8296 16.833C12.3216 14.4462 13.5415 11.7622 15.6328 10.5227C17.806 9.8978 19.9895 9.31389 22.0603 8.46364C23.967 7.67484 25.7712 6.67093 27.6267 5.75921C35.5098 1.91769 44.3259 0.0225467 53.0804 0.268404C57.1194 0.381088 61.2096 0.985489 65.0743 2.18404C65.0743 2.18404 66.612 3.7104 67.1143 4.62212C68.7135 7.53143 70.0461 10.5739 71.1122 13.7086L71.1225 13.6881Z" fill="#3C342D"/>
<path d="M12.1682 24.0653C13.7468 30.939 17.0477 38.0177 22.4296 42.5865C19.7028 40.9782 17.0682 39.1957 14.4849 37.3723C9.51309 33.8586 4.58226 30.099 1.0661 25.1409C0.0819849 23.758 -0.51259 21.996 0.604792 20.7257C2.43976 17.335 5.54588 14.733 8.96978 12.9505C11.0815 11.8544 13.347 11.1578 15.6433 10.5022C13.5521 11.7417 12.3219 14.4257 11.8401 16.8125C11.3583 19.2096 11.6248 21.6887 12.1784 24.0653H12.1682Z" fill="#EE7274"/>
<path d="M109.288 22.0165C112.578 22.0165 115.192 21.0229 115.192 17.4272C115.192 13.8316 112.578 12.8379 109.288 12.8379H101.712C101.62 15.3579 101.579 18.5131 101.579 22.0268H109.288V22.0165ZM96.8428 39.9334C97.0683 34.8011 97.1606 28.9927 97.1606 24.1678C97.1606 19.3429 97.0683 13.5345 96.8428 8.40222H109.77C115.807 8.40222 119.949 11.414 119.949 17.4067C119.949 23.3995 115.807 26.4112 109.77 26.4112H101.569C101.61 32.3938 101.661 34.6065 101.886 39.9231H96.8428V39.9334Z" fill="#3C342D"/>
<path d="M126.951 39.9436C127.176 34.8114 127.309 29.003 127.309 24.1781C127.309 17.5604 127.176 13.5447 126.951 8.41248H132.087C131.861 13.5447 131.728 17.5604 131.728 24.1781C131.728 28.5932 131.769 32.5577 131.861 35.5285H149.216V39.9436H126.951Z" fill="#3C342D"/>
<path d="M155.337 39.9436C155.562 34.8114 155.655 29.003 155.655 24.1781C155.655 19.3531 155.562 13.5447 155.337 8.41248H176.065V12.8277H160.196C160.104 15.3477 160.063 18.5029 160.063 21.9756H174.804V26.3908H160.063C160.063 29.9455 160.104 33.0084 160.196 35.5387H176.772V39.9539H155.327L155.337 39.9436Z" fill="#3C342D"/>
<path d="M183.64 39.9436C183.865 34.8114 183.957 29.003 183.957 24.1781C183.957 19.3531 183.865 13.5447 183.64 8.41248H189.401C193.676 16.2492 198.186 23.5429 203.865 32.9572V23.7273C203.865 19.3634 203.773 13.555 203.547 8.42272H208.458C208.284 13.555 208.191 19.3634 208.191 24.1883C208.191 29.0132 208.284 34.8216 208.458 39.9539H202.738C199.221 33.5104 192.784 22.9795 188.273 15.5014V24.6493C188.273 29.0132 188.365 34.8216 188.591 39.9539H183.629L183.64 39.9436Z" fill="#3C342D"/>
<path d="M236.31 27.8249C234.188 22.4673 231.984 17.1097 230.129 12.8277C228.243 17.1916 226.028 22.5083 223.947 27.8249H236.3H236.31ZM240.913 39.9334C240.052 37.5465 239.068 34.9343 238.033 32.2299H222.215C221.18 34.9343 220.185 37.5465 219.334 39.9334H213.707C220.554 24.6288 222.4 19.9882 226.961 8.41248H233.317C237.869 19.978 239.765 24.6185 246.613 39.9334H240.934H240.913Z" fill="#3C342D"/>
<path d="M262.133 25.8478C260.688 22.7029 258.074 17.2019 256.587 14.2311C256.546 16.618 256.495 21.1253 256.495 24.1781C256.495 28.9928 256.587 34.8114 256.813 39.9436H251.769C251.995 34.8114 252.087 29.003 252.087 24.1781C252.087 19.3531 251.995 13.5447 251.769 8.41248H259.201C261.815 14.6306 264.337 20.48 269.206 30.6523C274.076 20.48 276.597 14.6204 279.16 8.41248H286.592C286.367 13.5447 286.275 19.3531 286.275 24.1781C286.275 29.003 286.367 34.8114 286.592 39.9436H281.59C281.764 34.8114 281.856 29.003 281.856 24.1781C281.856 21.1151 281.815 16.6077 281.764 14.2311C280.278 17.2019 277.664 22.6927 276.218 25.8478C273.379 31.8304 271.718 35.5694 269.186 41.2037C266.674 35.5797 264.962 31.8406 262.123 25.8478H262.133Z" fill="#3C342D"/>
<path d="M314.404 27.8249C312.282 22.4673 310.078 17.1097 308.223 12.8277C306.337 17.1916 304.122 22.5083 302.051 27.8249H314.404ZM318.997 39.9334C318.136 37.5465 317.152 34.9343 316.116 32.2299H300.299C299.263 34.9343 298.269 37.5465 297.418 39.9334H291.79C298.638 24.6288 300.483 19.9882 305.045 8.41248H311.401C315.952 19.978 317.849 24.6185 324.696 39.9334H319.017H318.997Z" fill="#3C342D"/>
<path d="M332.887 39.9435C333.062 34.4527 333.205 29.3102 333.205 21.9345V12.8378H322.216V8.42261H348.623V12.8378H337.634V21.9345C337.634 29.3205 337.726 34.4527 337.9 39.9435H332.898H332.887Z" fill="#3C342D"/>
<path d="M368.705 27.8249C366.583 22.4673 364.379 17.1097 362.524 12.8277C360.637 17.1916 358.423 22.5083 356.342 27.8249H368.695H368.705ZM373.308 39.9334C372.447 37.5465 371.463 34.9343 370.427 32.2299H354.61C353.574 34.9343 352.58 37.5465 351.729 39.9334H346.101C352.949 24.6288 354.794 19.9882 359.356 8.41248H365.712C370.263 19.978 372.16 24.6185 379.007 39.9334H373.328H373.308Z" fill="#3C342D"/>
<path d="M42.2456 10.3179C37.7556 11.1272 33.2553 13.7804 32.0354 18.1443C31.1743 21.2073 32.1277 24.5878 34.0344 27.1386C35.9411 29.6894 38.6884 31.5026 41.569 32.8445C43.0247 33.5206 44.5829 34.1045 46.1923 34.0431C47.648 33.9816 49.0421 33.3875 50.3235 32.6909C52.5993 31.4411 54.7726 29.6689 55.6234 27.2206C56.9458 23.4508 54.8238 19.3736 52.3533 16.239C49.8315 13.0428 46.2846 9.96961 42.2456 10.3384V10.3179Z" fill="#84BC3C"/>
</svg>
